<svg width="24" height="24" viewBox="0 0 24 24" fill="none" xmlns="http://www.w3.org/2000/svg">
<path fill-rule="evenodd" clip-rule="evenodd" d="M12 23C18.0751 23 23 18.0751 23 12C23 5.92487 18.0751 1 12 1C5.92487 1 1 5.92487 1 12C1 18.0751 5.92487 23 12 23ZM12 24C18.6274 24 24 18.6274 24 12C24 5.37258 18.6274 0 12 0C5.37258 0 0 5.37258 0 12C0 18.6274 5.37258 24 12 24Z" fill="#E1B696"/>
<path fill-rule="evenodd" clip-rule="evenodd" d="M10.125 8.25H13.875C15.739 8.25 17.25 9.76104 17.25 11.625C17.25 13.3622 15.9375 14.7929 14.25 14.9794V17.25L12.5625 15H10.125C8.26104 15 6.75 13.489 6.75 11.625C6.75 9.76104 8.26104 8.25 10.125 8.25Z" fill="#E1B696"/>
</svg>
