<svg width="18" height="18" viewBox="0 0 18 18" fill="none" xmlns="http://www.w3.org/2000/svg">
<path d="M10.2835 3.6V9.10956H7.71652V3.6C7.71652 1.61217 6.10435 0 4.11652 0H0V5.93217C0 7.92 1.61217 9.53217 3.6 9.53217H5.80696V12.0835H4.16348C2.17565 12.0835 0.563478 13.6957 0.563478 15.6835V18H4.11652C6.10435 18 7.71652 16.3878 7.71652 14.4V12.5061H10.2678V14.4C10.2678 16.3878 11.88 18 13.8678 18H17.4209V15.6678C17.4209 13.68 15.8087 12.0678 13.8209 12.0678H12.193V9.53217H14.4C16.3878 9.53217 18 7.92 18 5.93217V0H13.8678C11.8957 0 10.2835 1.61217 10.2835 3.6ZM1.92522 6.65217V0.422609H3.34957C4.7113 0.422609 5.80696 1.51826 5.80696 2.88V9.10956H4.38261C3.02087 9.10956 1.92522 7.99826 1.92522 6.65217ZM3.34957 17.5774H2.4887V14.9635C2.4887 13.6017 3.58435 12.5061 4.94609 12.5061H5.80696V15.1357C5.80696 16.4817 4.69565 17.5774 3.34957 17.5774ZM15.5113 14.9635V17.593H14.6504C13.2887 17.593 12.193 16.4974 12.193 15.1357V12.5061H13.0539C14.4157 12.5061 15.5113 13.6017 15.5113 14.9635ZM10.2835 12.0835H7.71652V9.53217H10.2678V12.0835H10.2835ZM13.6174 9.10956H12.193V2.88C12.193 1.51826 13.2887 0.422609 14.6504 0.422609H16.0748V6.65217C16.0904 7.99826 14.9791 9.10956 13.6174 9.10956Z" fill="#141B21"/>
</svg>
