<svg width="346" height="120" viewBox="0 0 346 120" fill="none" xmlns="http://www.w3.org/2000/svg">
<path d="M174.941 12.7883V21.6168H170.825V12.7883C170.825 9.63103 168.238 7 165.004 7H158.36V16.5302C158.36 19.6874 160.947 22.3184 164.181 22.3184H167.768V26.4111H165.122C161.947 26.4111 159.301 28.9837 159.301 32.1994V35.9413H165.063C168.238 35.9413 170.884 33.3687 170.884 30.153V27.1127H175V30.153C175 33.3103 177.587 35.9413 180.82 35.9413H186.583V32.1994C186.583 29.0422 183.995 26.4111 180.762 26.4111H178.116V22.3184H181.702C184.877 22.3184 187.523 19.7459 187.523 16.5302V7.05847H180.879C177.528 7.05847 174.941 9.63103 174.941 12.7883ZM161.477 17.6995V7.70161H163.77C165.945 7.70161 167.709 9.45563 167.709 11.6189V21.6168H165.416C163.24 21.6753 161.477 19.8628 161.477 17.6995ZM163.77 35.2397H162.358V31.03C162.358 28.8668 164.122 27.1127 166.298 27.1127H167.709V31.3224C167.709 33.4857 165.945 35.2397 163.77 35.2397ZM183.408 31.03V35.2397H181.996C179.821 35.2397 178.057 33.4857 178.057 31.3224V27.1127H179.468C181.585 27.1127 183.408 28.8668 183.408 31.03ZM174.941 26.4111H170.825V22.3184H174.941V26.4111ZM180.35 21.6753H178.057V11.6774C178.057 9.51409 179.821 7.76008 181.996 7.76008H184.289V17.758C184.289 19.8628 182.526 21.6753 180.35 21.6753Z" fill="#E1B696"/>
<path d="M143.308 105.634V112.884H142.603V106.686L140.016 110.954H139.898L137.311 106.686V112.884H136.605V105.634H137.487L139.898 109.668L142.309 105.634H143.308Z" fill="#E1B696"/>
<path d="M152.893 112.998C151.834 112.998 150.952 112.648 150.188 111.887C149.482 111.127 149.071 110.25 149.071 109.198C149.071 108.146 149.424 107.269 150.188 106.567C150.893 105.807 151.834 105.456 152.893 105.456C153.951 105.456 154.833 105.807 155.597 106.567C156.303 107.269 156.714 108.204 156.714 109.198C156.714 110.25 156.362 111.127 155.597 111.887C154.892 112.648 153.951 112.998 152.893 112.998ZM152.893 112.297C153.774 112.297 154.48 112.004 155.068 111.42C155.656 110.835 155.95 110.075 155.95 109.256C155.95 108.379 155.656 107.678 155.068 107.093C154.48 106.508 153.774 106.216 152.893 106.216C152.011 106.216 151.305 106.508 150.717 107.093C150.129 107.678 149.835 108.379 149.835 109.256C149.835 110.133 150.129 110.835 150.717 111.42C151.305 112.004 152.069 112.297 152.893 112.297Z" fill="#E1B696"/>
<path d="M161.652 111.245L162.299 110.894C162.534 111.771 163.299 112.355 164.416 112.355C165.474 112.355 166.121 111.829 166.121 111.069C166.121 110.66 166.003 110.426 165.709 110.192C165.415 109.958 164.945 109.783 164.357 109.607C163.593 109.374 163.063 109.14 162.828 109.023C162.299 108.672 162.005 108.204 162.005 107.561C162.005 106.976 162.24 106.45 162.652 106.099C163.063 105.749 163.593 105.573 164.239 105.573C165.357 105.573 166.238 106.216 166.65 107.152L166.062 107.503C165.709 106.684 165.121 106.275 164.239 106.275C163.357 106.275 162.711 106.743 162.711 107.561C162.711 107.912 162.828 108.204 163.063 108.38C163.299 108.555 163.71 108.73 164.298 108.906L164.886 109.081C165.004 109.14 165.18 109.198 165.415 109.257C165.65 109.315 165.827 109.432 165.886 109.491C166.121 109.607 166.474 109.841 166.591 110.075C166.709 110.309 166.826 110.66 166.826 111.011C166.826 111.595 166.591 112.122 166.121 112.472C165.65 112.823 165.063 112.999 164.357 112.999C163.005 112.999 162.005 112.355 161.652 111.245Z" fill="#E1B696"/>
<path d="M177.292 112.883L176.587 111.07H173.118L172.412 112.883H171.707L174.529 105.633H175.293L178.115 112.883H177.292ZM173.412 110.427H176.351L174.882 106.51L173.412 110.427Z" fill="#E1B696"/>
<path d="M183.702 105.633H184.407V112.883H183.702V105.633Z" fill="#E1B696"/>
<path d="M191.167 111.946C190.461 111.244 190.108 110.309 190.108 109.256C190.108 108.204 190.461 107.327 191.167 106.567C191.872 105.865 192.813 105.456 193.93 105.456C195.282 105.456 196.458 106.158 197.105 107.269L196.458 107.619C195.988 106.742 195.047 106.158 193.93 106.158C193.048 106.158 192.284 106.45 191.696 107.035C191.108 107.619 190.814 108.321 190.814 109.198C190.814 110.075 191.108 110.777 191.696 111.361C192.284 111.946 193.048 112.238 193.93 112.238C194.988 112.238 195.988 111.654 196.458 110.777L197.105 111.127C196.517 112.238 195.282 112.94 193.93 112.94C192.813 112.998 191.872 112.648 191.167 111.946Z" fill="#E1B696"/>
<path d="M205.396 112.998C204.338 112.998 203.456 112.648 202.691 111.887C201.986 111.127 201.574 110.25 201.574 109.198C201.574 108.146 201.927 107.269 202.691 106.567C203.397 105.807 204.338 105.456 205.396 105.456C206.454 105.456 207.336 105.807 208.101 106.567C208.806 107.269 209.218 108.204 209.218 109.198C209.218 110.25 208.865 111.127 208.101 111.887C207.336 112.648 206.454 112.998 205.396 112.998ZM205.396 112.297C206.278 112.297 206.983 112.004 207.571 111.42C208.159 110.835 208.453 110.075 208.453 109.256C208.453 108.379 208.159 107.678 207.571 107.093C206.983 106.508 206.278 106.216 205.396 106.216C204.514 106.216 203.808 106.508 203.221 107.093C202.633 107.678 202.339 108.379 202.339 109.256C202.339 110.133 202.633 110.835 203.221 111.42C203.808 112.004 204.514 112.297 205.396 112.297Z" fill="#E1B696"/>
<path d="M73.4018 82.9493L64.5236 59.5039H63.4065L54.5282 82.9493H52V84.0017H54.1167H55.2926H55.8805H58.9379V82.9493H56.2921L59.1731 75.0562H67.0518L69.9328 82.9493H67.287V84.0017H70.2856H70.9324H72.1083H73.8134H75.7537V82.9493H73.4018ZM59.5259 74.0038L63.1125 64.2982L66.6402 74.0038H59.5259Z" fill="#E1B696"/>
<path d="M203.868 82.9473L194.989 59.502H193.872L184.994 82.9473H182.466V83.9997H184.582H185.758H186.346H189.404V82.9473H186.758L189.639 75.0542H197.576L200.457 82.9473H197.812V83.9997H200.81H201.457H202.633H204.338H206.278V82.9473H203.868ZM189.992 74.0018L193.578 64.2963L197.106 74.0018H189.992Z" fill="#E1B696"/>
<path d="M108.737 59.9736H105.562H97.3306V61.026V65.4696H98.1537L98.9769 61.026H105.562V82.9513H102.916V84.0037H105.562H108.737H111.383V82.9513H108.737V61.026H115.322L116.145 65.4696H116.968V61.026V59.9736H108.737Z" fill="#E1B696"/>
<path d="M215.802 59.9736H212.569H204.396V61.026V65.4696H205.16L205.983 61.026H212.569V82.9513H209.923V84.0037H212.569H215.802H218.448V82.9513H215.802V61.026H222.388L223.211 65.4696H223.975V61.026V59.9736H215.802Z" fill="#E1B696"/>
<path d="M182.114 59.9736H179.468H177.822H175V61.026H177.822V78.6832L164.063 59.9736H162.417H160.771H158.125V61.026H160.771V82.9513H158.125V84.0037H160.771H162.417H165.239V82.9513H162.417V63.0724L177.822 84.0037H179.468V61.026H182.114V59.9736Z" fill="#E1B696"/>
<path d="M248.493 59.9736H246.435H244.789H242.26V61.026H244.789V74.5904C244.789 78.4493 243.319 82.6589 238.38 82.6589C232.971 82.6589 231.912 78.1569 231.912 74.7658V61.026H234.558V59.9736H231.912H228.679H226.033V61.026H228.679V74.7658C228.679 78.1569 229.737 84.5883 237.733 84.5883C245.259 84.5883 246.435 78.2739 246.435 75.1167V61.026H248.493V59.9736Z" fill="#E1B696"/>
<path d="M291.473 82.9473L282.595 59.502H281.477L272.599 82.9473H271.6H270.659C269.777 82.9473 269.13 82.3042 268.189 80.8425C268.013 80.5502 265.132 76.2236 263.839 74.2357C266.72 73.1833 269.189 70.9615 269.189 67.4535C269.189 61.6068 263.78 59.8528 260.546 59.9112H256.901H253.667H251.021V60.9636H253.667V82.8304H251.021V83.8828H253.667H256.901H259.546V82.8304H256.901V74.9373H259.488C259.899 74.9373 260.311 74.9373 260.722 74.8788C261.428 75.9897 264.838 81.1933 265.073 81.4856C266.249 83.2981 268.366 83.8828 270.189 83.8828H271.717H272.305H273.481H274.069H277.126V82.8304H274.481L277.362 74.9373H285.299L288.18 82.8304H285.534V83.8828H288.533H289.18H290.356H292.061H294.001V82.8304H291.473V82.9473ZM258.9 74.0018H256.783V61.0806H259.958C263.015 61.0806 265.426 63.7701 265.426 67.512C265.485 71.2539 262.721 74.0018 258.9 74.0018ZM277.597 74.0018L281.183 64.2963L284.711 74.0018H277.597Z" fill="#E1B696"/>
<path d="M96.2732 82.9467C95.3912 82.9467 94.7445 82.3035 93.8037 80.8419C93.6273 80.5495 90.7463 76.2229 89.4528 74.2351C92.3338 73.1826 94.8033 70.9609 94.8033 67.4529C94.8033 61.6061 89.394 59.8521 86.1602 59.9106H82.5149H79.2811H76.6353V60.963H79.2811V82.8297H76.6353V83.8822H79.2811H82.5149H85.1607V82.8297H82.5149V74.9367H85.1019C85.5135 74.9367 85.9251 74.9367 86.3366 74.8782C87.0422 75.9891 90.4524 81.1927 90.6875 81.485C91.8635 83.2975 93.9801 83.8822 95.8028 83.8822C96.5672 83.8822 97.2139 83.8822 97.3315 83.8822V82.8297C97.1551 82.9467 96.7435 82.9467 96.2732 82.9467ZM84.5139 74.0012H82.3973V61.0799H85.5723C88.6297 61.0799 91.0403 63.7694 91.0403 67.5113C91.0991 71.2532 88.3357 74.0012 84.5139 74.0012Z" fill="#E1B696"/>
<path d="M143.191 79.0303C143.838 77.8609 144.367 76.5162 144.779 75.0545H146.542V74.0021H141.721V75.0545H143.367C143.073 76.1069 142.662 77.0424 142.25 77.8609C140.192 75.2884 138.017 72.5404 136.547 70.6694C140.722 67.98 141.662 65.9336 141.662 63.9457C141.662 61.724 139.781 59.6191 135.665 59.6191C131.608 59.6191 129.609 62.0748 129.609 64.8812C129.609 67.3368 131.314 69.2662 133.078 71.488C129.903 73.4759 127.022 75.3468 127.316 79.1472C127.493 81.3105 128.668 82.7137 130.08 83.4738C131.491 84.2339 133.137 84.3508 134.195 84.3508C136.959 84.3508 139.311 83.4153 141.074 81.7198C142.309 83.2399 144.073 84.8185 147.13 83.9415H147.189C147.189 84 145.425 81.7782 143.191 79.0303ZM135.606 60.6715C137.076 60.6715 138.84 61.5486 138.664 64.6473C138.546 67.0445 137.017 68.74 135.783 69.734C135.371 69.2078 135.077 68.7985 134.96 68.6816C133.784 67.2199 132.549 65.6413 132.549 63.7118C132.549 61.724 134.078 60.6715 135.606 60.6715ZM134.842 83.0645C130.903 83.0645 129.609 77.9779 132.314 74.2944C132.725 73.7682 133.255 73.1835 133.901 72.5404C135.665 74.7622 138.664 78.6795 140.251 80.7258C138.781 82.246 136.959 83.0645 134.842 83.0645Z" fill="#E1B696"/>
</svg>
