<svg width="346" height="120" viewBox="0 0 346 120" fill="none" xmlns="http://www.w3.org/2000/svg">
<path d="M174.941 12.7883V21.6168H170.825V12.7883C170.825 9.63103 168.238 7 165.004 7H158.36V16.5302C158.36 19.6874 160.947 22.3184 164.181 22.3184H167.768V26.4111H165.122C161.947 26.4111 159.301 28.9837 159.301 32.1994V35.9413H165.063C168.238 35.9413 170.884 33.3687 170.884 30.153V27.1127H175V30.153C175 33.3103 177.587 35.9413 180.82 35.9413H186.583V32.1994C186.583 29.0422 183.995 26.4111 180.762 26.4111H178.116V22.3184H181.702C184.877 22.3184 187.523 19.7459 187.523 16.5302V7.05847H180.879C177.528 7.05847 174.941 9.63103 174.941 12.7883ZM161.477 17.6995V7.70161H163.77C165.945 7.70161 167.709 9.45563 167.709 11.6189V21.6168H165.416C163.24 21.6753 161.477 19.8628 161.477 17.6995ZM163.77 35.2397H162.358V31.03C162.358 28.8668 164.122 27.1127 166.298 27.1127H167.709V31.3224C167.709 33.4857 165.945 35.2397 163.77 35.2397ZM183.408 31.03V35.2397H181.996C179.821 35.2397 178.057 33.4857 178.057 31.3224V27.1127H179.468C181.585 27.1127 183.408 28.8668 183.408 31.03ZM174.941 26.4111H170.825V22.3184H174.941V26.4111ZM180.35 21.6753H178.057V11.6774C178.057 9.51409 179.821 7.76008 181.996 7.76008H184.289V17.758C184.289 19.8628 182.526 21.6753 180.35 21.6753Z" fill="#1D4F41"/>
<path d="M174.941 12.7883V21.6168H170.825V12.7883C170.825 9.63103 168.238 7 165.004 7H158.36V16.5302C158.36 19.6874 160.947 22.3184 164.181 22.3184H167.768V26.4111H165.122C161.947 26.4111 159.301 28.9837 159.301 32.1994V35.9413H165.063C168.238 35.9413 170.884 33.3687 170.884 30.153V27.1127H175V30.153C175 33.3103 177.587 35.9413 180.82 35.9413H186.583V32.1994C186.583 29.0422 183.995 26.4111 180.762 26.4111H178.116V22.3184H181.702C184.877 22.3184 187.523 19.7459 187.523 16.5302V7.05847H180.879C177.528 7.05847 174.941 9.63103 174.941 12.7883ZM161.477 17.6995V7.70161H163.77C165.945 7.70161 167.709 9.45563 167.709 11.6189V21.6168H165.416C163.24 21.6753 161.477 19.8628 161.477 17.6995ZM163.77 35.2397H162.358V31.03C162.358 28.8668 164.122 27.1127 166.298 27.1127H167.709V31.3224C167.709 33.4857 165.945 35.2397 163.77 35.2397ZM183.408 31.03V35.2397H181.996C179.821 35.2397 178.057 33.4857 178.057 31.3224V27.1127H179.468C181.585 27.1127 183.408 28.8668 183.408 31.03ZM174.941 26.4111H170.825V22.3184H174.941V26.4111ZM180.35 21.6753H178.057V11.6774C178.057 9.51409 179.821 7.76008 181.996 7.76008H184.289V17.758C184.289 19.8628 182.526 21.6753 180.35 21.6753Z" fill="url(#paint0_radial)" fill-opacity="0.4" style="mix-blend-mode:overlay"/>
<path d="M143.308 105.633V112.883H142.603V106.685L140.016 110.953H139.898L137.311 106.685V112.883H136.605V105.633H137.487L139.898 109.667L142.309 105.633H143.308Z" fill="#1D4F41"/>
<path d="M143.308 105.633V112.883H142.603V106.685L140.016 110.953H139.898L137.311 106.685V112.883H136.605V105.633H137.487L139.898 109.667L142.309 105.633H143.308Z" fill="url(#paint1_radial)" fill-opacity="0.4" style="mix-blend-mode:overlay"/>
<path d="M152.893 112.998C151.834 112.998 150.952 112.647 150.188 111.887C149.482 111.127 149.071 110.25 149.071 109.198C149.071 108.145 149.424 107.268 150.188 106.567C150.893 105.807 151.834 105.456 152.893 105.456C153.951 105.456 154.833 105.807 155.597 106.567C156.303 107.268 156.714 108.204 156.714 109.198C156.714 110.25 156.362 111.127 155.597 111.887C154.892 112.647 153.951 112.998 152.893 112.998ZM152.893 112.296C153.774 112.296 154.48 112.004 155.068 111.419C155.656 110.835 155.95 110.075 155.95 109.256C155.95 108.379 155.656 107.678 155.068 107.093C154.48 106.508 153.774 106.216 152.893 106.216C152.011 106.216 151.305 106.508 150.717 107.093C150.129 107.678 149.835 108.379 149.835 109.256C149.835 110.133 150.129 110.835 150.717 111.419C151.305 112.004 152.069 112.296 152.893 112.296Z" fill="#1D4F41"/>
<path d="M152.893 112.998C151.834 112.998 150.952 112.647 150.188 111.887C149.482 111.127 149.071 110.25 149.071 109.198C149.071 108.145 149.424 107.268 150.188 106.567C150.893 105.807 151.834 105.456 152.893 105.456C153.951 105.456 154.833 105.807 155.597 106.567C156.303 107.268 156.714 108.204 156.714 109.198C156.714 110.25 156.362 111.127 155.597 111.887C154.892 112.647 153.951 112.998 152.893 112.998ZM152.893 112.296C153.774 112.296 154.48 112.004 155.068 111.419C155.656 110.835 155.95 110.075 155.95 109.256C155.95 108.379 155.656 107.678 155.068 107.093C154.48 106.508 153.774 106.216 152.893 106.216C152.011 106.216 151.305 106.508 150.717 107.093C150.129 107.678 149.835 108.379 149.835 109.256C149.835 110.133 150.129 110.835 150.717 111.419C151.305 112.004 152.069 112.296 152.893 112.296Z" fill="url(#paint2_radial)" fill-opacity="0.4" style="mix-blend-mode:overlay"/>
<path d="M161.652 111.244L162.299 110.893C162.534 111.77 163.299 112.355 164.416 112.355C165.474 112.355 166.121 111.829 166.121 111.069C166.121 110.659 166.003 110.426 165.709 110.192C165.415 109.958 164.945 109.782 164.357 109.607C163.593 109.373 163.063 109.139 162.828 109.022C162.299 108.672 162.005 108.204 162.005 107.561C162.005 106.976 162.24 106.45 162.652 106.099C163.063 105.748 163.593 105.573 164.239 105.573C165.357 105.573 166.238 106.216 166.65 107.151L166.062 107.502C165.709 106.684 165.121 106.274 164.239 106.274C163.357 106.274 162.711 106.742 162.711 107.561C162.711 107.911 162.828 108.204 163.063 108.379C163.299 108.555 163.71 108.73 164.298 108.905L164.886 109.081C165.004 109.139 165.18 109.198 165.415 109.256C165.65 109.315 165.827 109.432 165.886 109.49C166.121 109.607 166.474 109.841 166.591 110.075C166.709 110.309 166.826 110.659 166.826 111.01C166.826 111.595 166.591 112.121 166.121 112.472C165.65 112.823 165.063 112.998 164.357 112.998C163.005 112.998 162.005 112.355 161.652 111.244Z" fill="#1D4F41"/>
<path d="M161.652 111.244L162.299 110.893C162.534 111.77 163.299 112.355 164.416 112.355C165.474 112.355 166.121 111.829 166.121 111.069C166.121 110.659 166.003 110.426 165.709 110.192C165.415 109.958 164.945 109.782 164.357 109.607C163.593 109.373 163.063 109.139 162.828 109.022C162.299 108.672 162.005 108.204 162.005 107.561C162.005 106.976 162.24 106.45 162.652 106.099C163.063 105.748 163.593 105.573 164.239 105.573C165.357 105.573 166.238 106.216 166.65 107.151L166.062 107.502C165.709 106.684 165.121 106.274 164.239 106.274C163.357 106.274 162.711 106.742 162.711 107.561C162.711 107.911 162.828 108.204 163.063 108.379C163.299 108.555 163.71 108.73 164.298 108.905L164.886 109.081C165.004 109.139 165.18 109.198 165.415 109.256C165.65 109.315 165.827 109.432 165.886 109.49C166.121 109.607 166.474 109.841 166.591 110.075C166.709 110.309 166.826 110.659 166.826 111.01C166.826 111.595 166.591 112.121 166.121 112.472C165.65 112.823 165.063 112.998 164.357 112.998C163.005 112.998 162.005 112.355 161.652 111.244Z" fill="url(#paint3_radial)" fill-opacity="0.4" style="mix-blend-mode:overlay"/>
<path d="M177.292 112.882L176.587 111.069H173.118L172.412 112.882H171.707L174.529 105.632H175.293L178.115 112.882H177.292ZM173.412 110.426H176.351L174.882 106.509L173.412 110.426Z" fill="#1D4F41"/>
<path d="M177.292 112.882L176.587 111.069H173.118L172.412 112.882H171.707L174.529 105.632H175.293L178.115 112.882H177.292ZM173.412 110.426H176.351L174.882 106.509L173.412 110.426Z" fill="url(#paint4_radial)" fill-opacity="0.4" style="mix-blend-mode:overlay"/>
<path d="M183.702 105.632H184.407V112.882H183.702V105.632Z" fill="#1D4F41"/>
<path d="M183.702 105.632H184.407V112.882H183.702V105.632Z" fill="url(#paint5_radial)" fill-opacity="0.4" style="mix-blend-mode:overlay"/>
<path d="M191.167 111.945C190.461 111.244 190.108 110.308 190.108 109.256C190.108 108.204 190.461 107.327 191.167 106.566C191.872 105.865 192.813 105.456 193.93 105.456C195.282 105.456 196.458 106.157 197.105 107.268L196.458 107.619C195.988 106.742 195.047 106.157 193.93 106.157C193.048 106.157 192.284 106.45 191.696 107.034C191.108 107.619 190.814 108.32 190.814 109.197C190.814 110.074 191.108 110.776 191.696 111.361C192.284 111.945 193.048 112.238 193.93 112.238C194.988 112.238 195.988 111.653 196.458 110.776L197.105 111.127C196.517 112.238 195.282 112.939 193.93 112.939C192.813 112.998 191.872 112.647 191.167 111.945Z" fill="#1D4F41"/>
<path d="M191.167 111.945C190.461 111.244 190.108 110.308 190.108 109.256C190.108 108.204 190.461 107.327 191.167 106.566C191.872 105.865 192.813 105.456 193.93 105.456C195.282 105.456 196.458 106.157 197.105 107.268L196.458 107.619C195.988 106.742 195.047 106.157 193.93 106.157C193.048 106.157 192.284 106.45 191.696 107.034C191.108 107.619 190.814 108.32 190.814 109.197C190.814 110.074 191.108 110.776 191.696 111.361C192.284 111.945 193.048 112.238 193.93 112.238C194.988 112.238 195.988 111.653 196.458 110.776L197.105 111.127C196.517 112.238 195.282 112.939 193.93 112.939C192.813 112.998 191.872 112.647 191.167 111.945Z" fill="url(#paint6_radial)" fill-opacity="0.4" style="mix-blend-mode:overlay"/>
<path d="M205.396 112.998C204.338 112.998 203.456 112.647 202.691 111.887C201.986 111.127 201.574 110.25 201.574 109.197C201.574 108.145 201.927 107.268 202.691 106.566C203.397 105.806 204.338 105.456 205.396 105.456C206.454 105.456 207.336 105.806 208.101 106.566C208.806 107.268 209.218 108.204 209.218 109.197C209.218 110.25 208.865 111.127 208.101 111.887C207.336 112.647 206.454 112.998 205.396 112.998ZM205.396 112.296C206.278 112.296 206.983 112.004 207.571 111.419C208.159 110.835 208.453 110.074 208.453 109.256C208.453 108.379 208.159 107.677 207.571 107.093C206.983 106.508 206.278 106.216 205.396 106.216C204.514 106.216 203.808 106.508 203.221 107.093C202.633 107.677 202.339 108.379 202.339 109.256C202.339 110.133 202.633 110.835 203.221 111.419C203.808 112.004 204.514 112.296 205.396 112.296Z" fill="#1D4F41"/>
<path d="M205.396 112.998C204.338 112.998 203.456 112.647 202.691 111.887C201.986 111.127 201.574 110.25 201.574 109.197C201.574 108.145 201.927 107.268 202.691 106.566C203.397 105.806 204.338 105.456 205.396 105.456C206.454 105.456 207.336 105.806 208.101 106.566C208.806 107.268 209.218 108.204 209.218 109.197C209.218 110.25 208.865 111.127 208.101 111.887C207.336 112.647 206.454 112.998 205.396 112.998ZM205.396 112.296C206.278 112.296 206.983 112.004 207.571 111.419C208.159 110.835 208.453 110.074 208.453 109.256C208.453 108.379 208.159 107.677 207.571 107.093C206.983 106.508 206.278 106.216 205.396 106.216C204.514 106.216 203.808 106.508 203.221 107.093C202.633 107.677 202.339 108.379 202.339 109.256C202.339 110.133 202.633 110.835 203.221 111.419C203.808 112.004 204.514 112.296 205.396 112.296Z" fill="url(#paint7_radial)" fill-opacity="0.4" style="mix-blend-mode:overlay"/>
<path d="M73.4018 82.949L64.5236 59.5037H63.4065L54.5282 82.949H52V84.0014H54.1167H55.2926H55.8805H58.9379V82.949H56.2921L59.1731 75.0559H67.0518L69.9328 82.949H67.287V84.0014H70.2856H70.9324H72.1083H73.8134H75.7537V82.949H73.4018ZM59.5259 74.0035L63.1125 64.298L66.6402 74.0035H59.5259Z" fill="#1D4F41"/>
<path d="M73.4018 82.949L64.5236 59.5037H63.4065L54.5282 82.949H52V84.0014H54.1167H55.2926H55.8805H58.9379V82.949H56.2921L59.1731 75.0559H67.0518L69.9328 82.949H67.287V84.0014H70.2856H70.9324H72.1083H73.8134H75.7537V82.949H73.4018ZM59.5259 74.0035L63.1125 64.298L66.6402 74.0035H59.5259Z" fill="url(#paint8_radial)" fill-opacity="0.4" style="mix-blend-mode:overlay"/>
<path d="M203.868 82.9471L194.989 59.5017H193.872L184.994 82.9471H182.466V83.9995H184.582H185.758H186.346H189.404V82.9471H186.758L189.639 75.054H197.576L200.457 82.9471H197.812V83.9995H200.81H201.457H202.633H204.338H206.278V82.9471H203.868ZM189.992 74.0016L193.578 64.296L197.106 74.0016H189.992Z" fill="#1D4F41"/>
<path d="M203.868 82.9471L194.989 59.5017H193.872L184.994 82.9471H182.466V83.9995H184.582H185.758H186.346H189.404V82.9471H186.758L189.639 75.054H197.576L200.457 82.9471H197.812V83.9995H200.81H201.457H202.633H204.338H206.278V82.9471H203.868ZM189.992 74.0016L193.578 64.296L197.106 74.0016H189.992Z" fill="url(#paint9_radial)" fill-opacity="0.4" style="mix-blend-mode:overlay"/>
<path d="M108.737 59.9734H105.562H97.3306V61.0258V65.4693H98.1537L98.9769 61.0258H105.562V82.951H102.916V84.0034H105.562H108.737H111.383V82.951H108.737V61.0258H115.322L116.145 65.4693H116.968V61.0258V59.9734H108.737Z" fill="#1D4F41"/>
<path d="M108.737 59.9734H105.562H97.3306V61.0258V65.4693H98.1537L98.9769 61.0258H105.562V82.951H102.916V84.0034H105.562H108.737H111.383V82.951H108.737V61.0258H115.322L116.145 65.4693H116.968V61.0258V59.9734H108.737Z" fill="url(#paint10_radial)" fill-opacity="0.4" style="mix-blend-mode:overlay"/>
<path d="M215.802 59.9734H212.569H204.396V61.0258V65.4693H205.16L205.983 61.0258H212.569V82.951H209.923V84.0034H212.569H215.802H218.448V82.951H215.802V61.0258H222.388L223.211 65.4693H223.975V61.0258V59.9734H215.802Z" fill="#1D4F41"/>
<path d="M215.802 59.9734H212.569H204.396V61.0258V65.4693H205.16L205.983 61.0258H212.569V82.951H209.923V84.0034H212.569H215.802H218.448V82.951H215.802V61.0258H222.388L223.211 65.4693H223.975V61.0258V59.9734H215.802Z" fill="url(#paint11_radial)" fill-opacity="0.4" style="mix-blend-mode:overlay"/>
<path d="M182.114 59.9734H179.468H177.822H175V61.0258H177.822V78.6829L164.063 59.9734H162.417H160.771H158.125V61.0258H160.771V82.951H158.125V84.0034H160.771H162.417H165.239V82.951H162.417V63.0722L177.822 84.0034H179.468V61.0258H182.114V59.9734Z" fill="#1D4F41"/>
<path d="M182.114 59.9734H179.468H177.822H175V61.0258H177.822V78.6829L164.063 59.9734H162.417H160.771H158.125V61.0258H160.771V82.951H158.125V84.0034H160.771H162.417H165.239V82.951H162.417V63.0722L177.822 84.0034H179.468V61.0258H182.114V59.9734Z" fill="url(#paint12_radial)" fill-opacity="0.4" style="mix-blend-mode:overlay"/>
<path d="M248.493 59.9734H246.435H244.789H242.26V61.0258H244.789V74.5902C244.789 78.449 243.319 82.6587 238.38 82.6587C232.971 82.6587 231.912 78.1567 231.912 74.7656V61.0258H234.558V59.9734H231.912H228.679H226.033V61.0258H228.679V74.7656C228.679 78.1567 229.737 84.5881 237.733 84.5881C245.259 84.5881 246.435 78.2736 246.435 75.1164V61.0258H248.493V59.9734Z" fill="#1D4F41"/>
<path d="M248.493 59.9734H246.435H244.789H242.26V61.0258H244.789V74.5902C244.789 78.449 243.319 82.6587 238.38 82.6587C232.971 82.6587 231.912 78.1567 231.912 74.7656V61.0258H234.558V59.9734H231.912H228.679H226.033V61.0258H228.679V74.7656C228.679 78.1567 229.737 84.5881 237.733 84.5881C245.259 84.5881 246.435 78.2736 246.435 75.1164V61.0258H248.493V59.9734Z" fill="url(#paint13_radial)" fill-opacity="0.4" style="mix-blend-mode:overlay"/>
<path d="M291.473 82.9471L282.595 59.5017H281.477L272.599 82.9471H271.6H270.659C269.777 82.9471 269.13 82.3039 268.189 80.8423C268.013 80.5499 265.132 76.2233 263.839 74.2355C266.72 73.1831 269.189 70.9613 269.189 67.4533C269.189 61.6065 263.78 59.8525 260.546 59.911H256.901H253.667H251.021V60.9634H253.667V82.8301H251.021V83.8826H253.667H256.901H259.546V82.8301H256.901V74.9371H259.488C259.899 74.9371 260.311 74.9371 260.722 74.8786C261.428 75.9895 264.838 81.1931 265.073 81.4854C266.249 83.2979 268.366 83.8826 270.189 83.8826H271.717H272.305H273.481H274.069H277.126V82.8301H274.481L277.362 74.9371H285.299L288.18 82.8301H285.534V83.8826H288.533H289.18H290.356H292.061H294.001V82.8301H291.473V82.9471ZM258.9 74.0016H256.783V61.0803H259.958C263.015 61.0803 265.426 63.7698 265.426 67.5117C265.485 71.2536 262.721 74.0016 258.9 74.0016ZM277.597 74.0016L281.183 64.296L284.711 74.0016H277.597Z" fill="#1D4F41"/>
<path d="M291.473 82.9471L282.595 59.5017H281.477L272.599 82.9471H271.6H270.659C269.777 82.9471 269.13 82.3039 268.189 80.8423C268.013 80.5499 265.132 76.2233 263.839 74.2355C266.72 73.1831 269.189 70.9613 269.189 67.4533C269.189 61.6065 263.78 59.8525 260.546 59.911H256.901H253.667H251.021V60.9634H253.667V82.8301H251.021V83.8826H253.667H256.901H259.546V82.8301H256.901V74.9371H259.488C259.899 74.9371 260.311 74.9371 260.722 74.8786C261.428 75.9895 264.838 81.1931 265.073 81.4854C266.249 83.2979 268.366 83.8826 270.189 83.8826H271.717H272.305H273.481H274.069H277.126V82.8301H274.481L277.362 74.9371H285.299L288.18 82.8301H285.534V83.8826H288.533H289.18H290.356H292.061H294.001V82.8301H291.473V82.9471ZM258.9 74.0016H256.783V61.0803H259.958C263.015 61.0803 265.426 63.7698 265.426 67.5117C265.485 71.2536 262.721 74.0016 258.9 74.0016ZM277.597 74.0016L281.183 64.296L284.711 74.0016H277.597Z" fill="url(#paint14_radial)" fill-opacity="0.4" style="mix-blend-mode:overlay"/>
<path d="M96.2732 82.9467C95.3912 82.9467 94.7445 82.3035 93.8037 80.8419C93.6273 80.5495 90.7463 76.2229 89.4528 74.2351C92.3338 73.1826 94.8033 70.9609 94.8033 67.4529C94.8033 61.6061 89.394 59.8521 86.1602 59.9106H82.5149H79.2811H76.6353V60.963H79.2811V82.8297H76.6353V83.8822H79.2811H82.5149H85.1607V82.8297H82.5149V74.9367H85.1019C85.5135 74.9367 85.9251 74.9367 86.3366 74.8782C87.0422 75.9891 90.4524 81.1927 90.6875 81.485C91.8635 83.2975 93.9801 83.8822 95.8028 83.8822C96.5672 83.8822 97.2139 83.8822 97.3315 83.8822V82.8297C97.1551 82.9467 96.7435 82.9467 96.2732 82.9467ZM84.5139 74.0012H82.3973V61.0799H85.5723C88.6297 61.0799 91.0403 63.7694 91.0403 67.5113C91.0991 71.2532 88.3357 74.0012 84.5139 74.0012Z" fill="#1D4F41"/>
<path d="M96.2732 82.9467C95.3912 82.9467 94.7445 82.3035 93.8037 80.8419C93.6273 80.5495 90.7463 76.2229 89.4528 74.2351C92.3338 73.1826 94.8033 70.9609 94.8033 67.4529C94.8033 61.6061 89.394 59.8521 86.1602 59.9106H82.5149H79.2811H76.6353V60.963H79.2811V82.8297H76.6353V83.8822H79.2811H82.5149H85.1607V82.8297H82.5149V74.9367H85.1019C85.5135 74.9367 85.9251 74.9367 86.3366 74.8782C87.0422 75.9891 90.4524 81.1927 90.6875 81.485C91.8635 83.2975 93.9801 83.8822 95.8028 83.8822C96.5672 83.8822 97.2139 83.8822 97.3315 83.8822V82.8297C97.1551 82.9467 96.7435 82.9467 96.2732 82.9467ZM84.5139 74.0012H82.3973V61.0799H85.5723C88.6297 61.0799 91.0403 63.7694 91.0403 67.5113C91.0991 71.2532 88.3357 74.0012 84.5139 74.0012Z" fill="url(#paint15_radial)" fill-opacity="0.4" style="mix-blend-mode:overlay"/>
<path d="M143.191 79.03C143.838 77.8607 144.367 76.5159 144.779 75.0543H146.542V74.0018H141.721V75.0543H143.367C143.073 76.1067 142.662 77.0421 142.25 77.8607C140.192 75.2881 138.017 72.5402 136.547 70.6692C140.722 67.9797 141.662 65.9334 141.662 63.9455C141.662 61.7237 139.781 59.6189 135.665 59.6189C131.608 59.6189 129.609 62.0745 129.609 64.8809C129.609 67.3366 131.314 69.266 133.078 71.4878C129.903 73.4756 127.022 75.3466 127.316 79.147C127.493 81.3102 128.668 82.7135 130.08 83.4735C131.491 84.2336 133.137 84.3505 134.195 84.3505C136.959 84.3505 139.311 83.4151 141.074 81.7195C142.309 83.2397 144.073 84.8183 147.13 83.9413H147.189C147.189 83.9997 145.425 81.778 143.191 79.03ZM135.606 60.6713C137.076 60.6713 138.84 61.5483 138.664 64.6471C138.546 67.0442 137.017 68.7398 135.783 69.7337C135.371 69.2075 135.077 68.7983 134.96 68.6813C133.784 67.2196 132.549 65.641 132.549 63.7116C132.549 61.7237 134.078 60.6713 135.606 60.6713ZM134.842 83.0643C130.903 83.0643 129.609 77.9776 132.314 74.2942C132.725 73.768 133.255 73.1833 133.901 72.5402C135.665 74.7619 138.664 78.6792 140.251 80.7256C138.781 82.2457 136.959 83.0643 134.842 83.0643Z" fill="#1D4F41"/>
<path d="M143.191 79.03C143.838 77.8607 144.367 76.5159 144.779 75.0543H146.542V74.0018H141.721V75.0543H143.367C143.073 76.1067 142.662 77.0421 142.25 77.8607C140.192 75.2881 138.017 72.5402 136.547 70.6692C140.722 67.9797 141.662 65.9334 141.662 63.9455C141.662 61.7237 139.781 59.6189 135.665 59.6189C131.608 59.6189 129.609 62.0745 129.609 64.8809C129.609 67.3366 131.314 69.266 133.078 71.4878C129.903 73.4756 127.022 75.3466 127.316 79.147C127.493 81.3102 128.668 82.7135 130.08 83.4735C131.491 84.2336 133.137 84.3505 134.195 84.3505C136.959 84.3505 139.311 83.4151 141.074 81.7195C142.309 83.2397 144.073 84.8183 147.13 83.9413H147.189C147.189 83.9997 145.425 81.778 143.191 79.03ZM135.606 60.6713C137.076 60.6713 138.84 61.5483 138.664 64.6471C138.546 67.0442 137.017 68.7398 135.783 69.7337C135.371 69.2075 135.077 68.7983 134.96 68.6813C133.784 67.2196 132.549 65.641 132.549 63.7116C132.549 61.7237 134.078 60.6713 135.606 60.6713ZM134.842 83.0643C130.903 83.0643 129.609 77.9776 132.314 74.2942C132.725 73.768 133.255 73.1833 133.901 72.5402C135.665 74.7619 138.664 78.6792 140.251 80.7256C138.781 82.2457 136.959 83.0643 134.842 83.0643Z" fill="url(#paint16_radial)" fill-opacity="0.4" style="mix-blend-mode:overlay"/>
<defs>
<radialGradient id="paint0_radial" cx="0" cy="0" r="1" gradientUnits="userSpaceOnUse" gradientTransform="translate(158.36 7) rotate(44.7815) scale(41.0862 31.4318)">
<stop stop-color="white"/>
<stop offset="1" stop-color="white" stop-opacity="0"/>
</radialGradient>
<radialGradient id="paint1_radial" cx="0" cy="0" r="1" gradientUnits="userSpaceOnUse" gradientTransform="translate(136.605 105.633) rotate(47.2458) scale(9.87363 7.53056)">
<stop stop-color="white"/>
<stop offset="1" stop-color="white" stop-opacity="0"/>
</radialGradient>
<radialGradient id="paint2_radial" cx="0" cy="0" r="1" gradientUnits="userSpaceOnUse" gradientTransform="translate(149.071 105.456) rotate(44.6181) scale(10.7382 8.21447)">
<stop stop-color="white"/>
<stop offset="1" stop-color="white" stop-opacity="0"/>
</radialGradient>
<radialGradient id="paint3_radial" cx="0" cy="0" r="1" gradientUnits="userSpaceOnUse" gradientTransform="translate(161.652 105.573) rotate(55.1308) scale(9.05023 6.49539)">
<stop stop-color="white"/>
<stop offset="1" stop-color="white" stop-opacity="0"/>
</radialGradient>
<radialGradient id="paint4_radial" cx="0" cy="0" r="1" gradientUnits="userSpaceOnUse" gradientTransform="translate(171.707 105.632) rotate(48.524) scale(9.67647 7.34698)">
<stop stop-color="white"/>
<stop offset="1" stop-color="white" stop-opacity="0"/>
</radialGradient>
<radialGradient id="paint5_radial" cx="0" cy="0" r="1" gradientUnits="userSpaceOnUse" gradientTransform="translate(183.702 105.632) rotate(84.4415) scale(7.28419 1.07449)">
<stop stop-color="white"/>
<stop offset="1" stop-color="white" stop-opacity="0"/>
</radialGradient>
<radialGradient id="paint6_radial" cx="0" cy="0" r="1" gradientUnits="userSpaceOnUse" gradientTransform="translate(190.108 105.456) rotate(46.9504) scale(10.2497 7.82329)">
<stop stop-color="white"/>
<stop offset="1" stop-color="white" stop-opacity="0"/>
</radialGradient>
<radialGradient id="paint7_radial" cx="0" cy="0" r="1" gradientUnits="userSpaceOnUse" gradientTransform="translate(201.574 105.456) rotate(44.6181) scale(10.7382 8.21447)">
<stop stop-color="white"/>
<stop offset="1" stop-color="white" stop-opacity="0"/>
</radialGradient>
<radialGradient id="paint8_radial" cx="0" cy="0" r="1" gradientUnits="userSpaceOnUse" gradientTransform="translate(52 59.5037) rotate(45.8835) scale(34.123 26.0932)">
<stop stop-color="white"/>
<stop offset="1" stop-color="white" stop-opacity="0"/>
</radialGradient>
<radialGradient id="paint9_radial" cx="0" cy="0" r="1" gradientUnits="userSpaceOnUse" gradientTransform="translate(182.466 59.5017) rotate(45.8127) scale(34.1639 26.1264)">
<stop stop-color="white"/>
<stop offset="1" stop-color="white" stop-opacity="0"/>
</radialGradient>
<radialGradient id="paint10_radial" cx="0" cy="0" r="1" gradientUnits="userSpaceOnUse" gradientTransform="translate(97.3306 59.9734) rotate(50.7435) scale(31.0337 23.2666)">
<stop stop-color="white"/>
<stop offset="1" stop-color="white" stop-opacity="0"/>
</radialGradient>
<radialGradient id="paint11_radial" cx="0" cy="0" r="1" gradientUnits="userSpaceOnUse" gradientTransform="translate(204.396 59.9734) rotate(50.8277) scale(30.9965 23.2247)">
<stop stop-color="white"/>
<stop offset="1" stop-color="white" stop-opacity="0"/>
</radialGradient>
<radialGradient id="paint12_radial" cx="0" cy="0" r="1" gradientUnits="userSpaceOnUse" gradientTransform="translate(158.125 59.9734) rotate(45.0492) scale(33.9545 25.9766)">
<stop stop-color="white"/>
<stop offset="1" stop-color="white" stop-opacity="0"/>
</radialGradient>
<radialGradient id="paint13_radial" cx="0" cy="0" r="1" gradientUnits="userSpaceOnUse" gradientTransform="translate(226.033 59.9734) rotate(47.6205) scale(33.3218 25.3861)">
<stop stop-color="white"/>
<stop offset="1" stop-color="white" stop-opacity="0"/>
</radialGradient>
<radialGradient id="paint14_radial" cx="0" cy="0" r="1" gradientUnits="userSpaceOnUse" gradientTransform="translate(251.021 59.5017) rotate(29.5645) scale(49.4136 32.4478)">
<stop stop-color="white"/>
<stop offset="1" stop-color="white" stop-opacity="0"/>
</radialGradient>
<radialGradient id="paint15_radial" cx="0" cy="0" r="1" gradientUnits="userSpaceOnUse" gradientTransform="translate(76.6353 59.9092) rotate(49.1954) scale(31.6708 23.9702)">
<stop stop-color="white"/>
<stop offset="1" stop-color="white" stop-opacity="0"/>
</radialGradient>
<radialGradient id="paint16_radial" cx="0" cy="0" r="1" gradientUnits="userSpaceOnUse" gradientTransform="translate(127.295 59.6189) rotate(51.1873) scale(31.7399 23.7183)">
<stop stop-color="white"/>
<stop offset="1" stop-color="white" stop-opacity="0"/>
</radialGradient>
</defs>
</svg>
