<svg width="245" height="30" viewBox="0 0 245 30" fill="none" xmlns="http://www.w3.org/2000/svg">
<path d="M16.8276 6.01942V15.1942H12.6207V6.01942C12.6207 2.71845 9.99138 0.0485434 6.7406 0.0485434H0V9.90291C0 13.2039 2.62931 15.8738 5.8801 15.8738H9.51332V20.1456H6.83621C3.58542 20.1456 0.956113 22.8155 0.956113 26.1165V30H6.7406C9.99138 30 12.6207 27.3301 12.6207 24.0291V20.8252H16.8276V23.9806C16.8276 27.2816 19.4569 29.9515 22.7077 29.9515H28.54V26.068C28.54 22.767 25.9107 20.0971 22.6599 20.0971H19.9828V15.8252H23.616C26.8668 15.8252 29.4961 13.1553 29.4961 9.85437V0H22.7077C19.4569 0 16.8276 2.71845 16.8276 6.01942ZM3.15517 11.068V0.728155H5.49765C7.74451 0.728155 9.51332 2.57282 9.51332 4.80582V15.1456H7.17085C4.92398 15.1942 3.15517 13.3495 3.15517 11.068ZM5.44984 29.2718H4.06348V24.9029C4.06348 22.6214 5.88009 20.8252 8.07915 20.8252H9.46552V25.1942C9.51332 27.4272 7.69671 29.2718 5.44984 29.2718ZM25.4326 24.9029V29.2718H24.0462C21.7994 29.2718 20.0306 27.4272 20.0306 25.1942V20.8252H21.4169C23.616 20.8252 25.4326 22.6699 25.4326 24.9029ZM16.8276 20.1456H12.6207V15.8738H16.8276V20.1456ZM22.3252 15.1942H19.9828V4.80582C19.9828 2.52427 21.7994 0.728155 23.9984 0.728155H26.3409V11.068C26.3409 13.3495 24.5243 15.1942 22.3252 15.1942Z" fill="#141B21"/>
<path d="M64.6332 24.0305L57.4145 4.56445H56.5062L49.2876 24.0305H47.2319V24.9043H48.9529H49.9091H50.3871H52.873V24.0305H50.7217L53.0642 17.4771H59.518L61.8605 24.0305H59.7092V24.9043H62.1473H62.6732H63.6293H65.0156H66.5932V24.0305H64.6332ZM53.3511 16.6033L56.2672 8.54504L59.1355 16.6033H53.3511Z" fill="#141B21"/>
<path d="M170.762 24.0295L163.543 4.56348H162.587L155.368 24.0295H153.313V24.9033H155.034H155.99H156.468H158.954V24.0295H156.803L159.145 17.4761H165.599L167.941 24.0295H165.79V24.9033H168.228H168.754H169.71H171.096H172.674V24.0295H170.762ZM159.48 16.6023L162.396 8.54406L165.264 16.6023H159.48Z" fill="#141B21"/>
<path d="M93.4122 4.95215H90.8307H84.1379V5.87448V9.51526H84.8072L85.4287 5.87448H90.8307V24.0298H88.6795V24.9521H90.8307H93.4122H95.5635V24.0298H93.4122V5.87448H98.7665L99.4357 9.51526H100.057V5.87448V4.95215H93.4122Z" fill="#141B21"/>
<path d="M180.419 4.95215H177.837H171.144V5.87448V9.51526H171.814L172.483 5.87448H177.837V24.0298H175.686V24.9521H177.837H180.419H182.57V24.0298H180.419V5.87448H185.773L186.442 9.51526H187.111V5.87448V4.95215H180.419Z" fill="#141B21"/>
<path d="M153.074 4.95215H150.922H149.584H147.241V5.87448H149.584V20.5347L138.35 4.95215H137.059H135.672H133.521V5.87448H135.672V24.0298H133.521V24.9521H135.672H137.059H139.354V24.0298H137.059V7.57351L149.584 24.9521H150.922V5.87448H153.074V4.95215Z" fill="#141B21"/>
<path d="M207.046 4.95215H205.373H204.034H201.979V5.82594H204.034V17.0881C204.034 20.292 202.839 23.7871 198.824 23.7871C194.425 23.7871 193.565 20.0492 193.565 17.2337V5.87448H195.716V5.00069H193.565H190.936H188.784V5.87448H190.936V17.2822C190.936 20.0978 191.796 25.4376 198.298 25.4376C204.417 25.4376 205.373 20.1949 205.373 17.5735V5.87448H207.046V4.95215Z" fill="#141B21"/>
<path d="M241.992 24.0295L234.774 4.56348H233.818L226.599 24.0295H225.786H225.021C224.304 24.0295 223.778 23.4955 223.013 22.2819C222.87 22.0392 220.528 18.447 219.476 16.7965C221.818 15.9227 223.826 14.078 223.826 11.1654C223.826 6.31105 219.428 4.85474 216.799 4.90328H213.835H211.205H209.054V5.77707H211.205V23.9324H209.054V24.8062H211.205H213.835H215.986V23.9324H213.835V17.4761H215.938C216.273 17.4761 216.607 17.4761 216.942 17.4276C217.516 18.3499 220.289 22.6703 220.48 22.913C221.436 24.4178 223.157 24.9033 224.639 24.9033H225.882H226.36H227.316H227.794H230.28V24.0295H228.129L230.471 17.4761H236.925L239.267 24.0295H237.116V24.9033H239.554H240.08H241.036H242.423H244V24.0295H241.992ZM215.508 16.6023H213.787V5.87416H216.368C218.854 5.87416 220.814 8.10717 220.814 11.214C220.814 14.3208 218.568 16.6023 215.508 16.6023ZM230.71 16.6023L233.626 8.54406L236.495 16.6023H230.71Z" fill="#141B21"/>
<path d="M83.2295 24.0297C82.5124 24.0297 81.9866 23.4957 81.2217 22.2822C81.0783 22.0394 78.7358 18.4472 77.6841 16.7967C80.0266 15.9229 82.0344 14.0783 82.0344 11.1656C82.0344 6.31128 77.6363 4.85497 75.007 4.90351H72.043H69.4137H67.2625V5.7773H69.4137V23.9326H67.2625V24.8064H69.4137H72.043H74.1943V23.9326H72.043V17.4763H74.1465C74.4811 17.4763 74.8157 17.4763 75.1504 17.4278C75.724 18.3501 78.4968 22.6705 78.688 22.9132C79.6441 24.4181 81.3651 24.9035 82.8471 24.9035C83.4686 24.9035 83.9944 24.9035 84.09 24.9035V24.0297C83.9944 24.0297 83.6598 24.0297 83.2295 24.0297ZM73.7162 16.6025H71.9952V5.87438H74.5767C77.0626 5.87438 79.0226 8.10739 79.0226 11.2142C79.0226 14.321 76.7758 16.6025 73.7162 16.6025Z" fill="#141B21"/>
<path d="M121.426 20.7776C121.952 19.8068 122.382 18.6903 122.717 17.4767H124.151V16.6029H120.231V17.4767H121.57C121.331 18.3505 120.996 19.1272 120.661 19.8068C118.988 17.6708 117.219 15.3893 116.024 13.8359C119.418 11.6029 120.183 9.90385 120.183 8.25337C120.183 6.40871 118.654 4.66113 115.307 4.66113C112.009 4.66113 110.383 6.69997 110.383 9.03006C110.383 11.0689 111.77 12.6708 113.204 14.5155C110.622 16.166 108.28 17.7194 108.519 20.8747C108.662 22.6708 109.618 23.8359 110.766 24.467C111.913 25.098 113.252 25.1951 114.112 25.1951C116.359 25.1951 118.271 24.4184 119.705 23.0106C120.709 24.2728 122.143 25.5835 124.629 24.8553H124.677C124.629 24.9524 123.195 23.1077 121.426 20.7776ZM115.212 5.53492C116.407 5.53492 117.841 6.26307 117.697 8.83589C117.602 10.8262 116.359 12.2339 115.355 13.0592C115.02 12.6223 114.781 12.2825 114.686 12.1854C113.73 10.9718 112.726 9.66113 112.726 8.05919C112.773 6.40871 114.016 5.53492 115.212 5.53492ZM114.59 24.1272C111.387 24.1272 110.335 19.9039 112.534 16.8456C112.869 16.4087 113.299 15.9233 113.825 15.3893C115.259 17.2339 117.697 20.4864 118.988 22.1854C117.793 23.4961 116.311 24.1272 114.59 24.1272Z" fill="#141B21"/>
</svg>
