<svg width="24" height="24" viewBox="0 0 24 24" fill="none" xmlns="http://www.w3.org/2000/svg">
<path fill-rule="evenodd" clip-rule="evenodd" d="M12 24C18.6274 24 24 18.627 24 12C24 5.37305 18.6274 0 12 0C5.37256 0 0 5.37305 0 12C0 18.627 5.37256 24 12 24ZM11.291 8.37598L10.7393 8.68945C9.97754 9.12109 9.71655 10.0781 10.1565 10.8271L12.0674 14.0791C12.5071 14.8281 13.481 15.084 14.2427 14.6523L14.7942 14.3389L15.7498 15.9658L15.1982 16.2783C13.5225 17.2295 11.3799 16.665 10.4124 15.0186L8.50146 11.7656C7.53394 10.1191 8.10815 8.01367 9.78369 7.0625L10.3354 6.75L11.291 8.37598Z" fill="#141B21"/>
</svg>
