<svg width="24" height="24" viewBox="0 0 24 24" fill="none" xmlns="http://www.w3.org/2000/svg">
<path fill-rule="evenodd" clip-rule="evenodd" d="M12 23C18.0751 23 23 18.0751 23 12C23 5.92487 18.0751 1 12 1C5.92487 1 1 5.92487 1 12C1 18.0751 5.92487 23 12 23ZM12 24C18.6274 24 24 18.6274 24 12C24 5.37258 18.6274 0 12 0C5.37258 0 0 5.37258 0 12C0 18.6274 5.37258 24 12 24Z" fill="#E1B696"/>
<path fill-rule="evenodd" clip-rule="evenodd" d="M10.7393 8.68927L11.2909 8.37629L10.3354 6.75L9.78381 7.06298C8.10816 8.01367 7.53404 10.1192 8.50148 11.7659L10.4124 15.0185C11.3799 16.6651 13.5225 17.2293 15.1981 16.2786L15.7498 15.9656L14.7943 14.3393L14.2427 14.6523C13.481 15.0845 12.5071 14.828 12.0673 14.0795L10.1564 10.827C9.71666 10.0785 9.97762 9.1214 10.7393 8.68927Z" fill="#E1B696"/>
</svg>
