<svg width="24" height="24" viewBox="0 0 24 24" fill="none" xmlns="http://www.w3.org/2000/svg">
<path fill-rule="evenodd" clip-rule="evenodd" d="M13.2451 13.2452C11.6246 14.8657 8.99724 14.8657 7.37675 13.2452C5.75625 11.6247 5.75625 8.99731 7.37675 7.37679C8.99724 5.75628 11.6246 5.75628 13.2451 7.37679C14.8656 8.99731 14.8656 11.6247 13.2451 13.2452ZM13.9442 15.4724C11.4812 17.2106 8.05249 16.9776 5.84842 14.7735C3.38386 12.3089 3.38386 8.31305 5.84842 5.84845C8.31299 3.38385 12.3088 3.38385 14.7734 5.84845C16.9774 8.05246 17.2104 11.4811 15.4725 13.9441L20.0002 18.4718L18.4718 20.0001L13.9442 15.4724Z" fill="#141B21"/>
</svg>
