<svg width="102" height="106" viewBox="0 0 102 106" fill="none" xmlns="http://www.w3.org/2000/svg">
<g clip-path="url(#clip0)">
<path d="M81.0205 48.5089L71.8314 36.6553C71.9666 37.5239 71.9989 38.4054 71.9278 39.2816L70.351 58.708C70.3005 59.3296 70.0304 59.913 69.5889 60.3538L35.7057 94.2164L35.3991 101.062C35.3682 101.758 35.6147 102.437 36.0844 102.951C36.5542 103.464 37.2087 103.771 37.9044 103.803L76.4041 105.554C77.0998 105.584 77.7793 105.338 78.2934 104.869C78.8075 104.399 79.1141 103.745 79.1459 103.05L81.5636 50.2248C81.5904 49.6068 81.3981 48.9991 81.0205 48.5089V48.5089Z" stroke="#1D4F41" stroke-width="2" stroke-miterlimit="10"/>
<path d="M70.3507 58.7079L71.9537 39.3166C72.0249 38.4404 71.9926 37.5589 71.8574 36.6902C71.4234 33.8417 69.9245 31.2637 67.663 29.4765C65.4016 27.6892 62.5459 26.8257 59.6724 27.0602L40.2956 28.6361C39.6766 28.6885 39.0963 28.9583 38.6575 29.3977L1.20899 66.7884C0.716855 67.2808 0.44043 67.9483 0.44043 68.6443C0.44043 69.3403 0.716855 70.0078 1.20899 70.5003L28.461 97.7444C28.9537 98.2362 29.6216 98.5125 30.3181 98.5125C31.0145 98.5125 31.6824 98.2362 32.1751 97.7444L35.6791 94.2426L69.5886 60.3538C70.0301 59.913 70.3002 59.3296 70.3507 58.7079V58.7079ZM62.5281 43.2649C61.8542 43.9381 60.9958 44.3964 60.0612 44.582C59.1267 44.7676 58.1581 44.6721 57.2779 44.3076C56.3976 43.9431 55.6453 43.326 55.116 42.5342C54.5867 41.7424 54.3042 40.8116 54.3042 39.8594C54.3042 38.9072 54.5867 37.9763 55.116 37.1846C55.6453 36.3928 56.3976 35.7756 57.2779 35.4111C58.1581 35.0466 59.1267 34.9511 60.0612 35.1367C60.9958 35.3223 61.8542 35.7807 62.5281 36.4539C62.9757 36.901 63.3308 37.4319 63.5731 38.0162C63.8154 38.6006 63.9401 39.2269 63.9401 39.8594C63.9401 40.4919 63.8154 41.1182 63.5731 41.7025C63.3308 42.2869 62.9757 42.8178 62.5281 43.2649V43.2649Z" stroke="#1D4F41" stroke-width="2" stroke-miterlimit="10"/>
<path d="M75.8691 26.1146C82.5617 24.7314 89.8849 24.0923 94.7642 19.1985C101.378 12.5801 102.972 4.19326 100.388 1.61067C97.8039 -0.971925 89.4032 0.621402 82.7894 7.23108C77.8927 12.1249 77.2532 19.4262 75.8691 26.1146Z" stroke="#1D4F41" stroke-width="2" stroke-miterlimit="10"/>
<path d="M60.8025 35.3508C58.1746 39.2115 59.1819 41.2076 59.9791 41.9955C61.0128 43.0285 64.0787 44.3505 70.7012 37.7408C73.7146 34.7205 74.9497 30.5533 75.8695 26.1147C72.8104 26.6232 69.8528 27.6193 67.1096 29.065" stroke="#1D4F41" stroke-width="2" stroke-miterlimit="10"/>
</g>
<defs>
<clipPath id="clip0">
<rect width="102" height="106" fill="white"/>
</clipPath>
</defs>
</svg>
