<svg width="88" height="98" viewBox="0 0 88 98" fill="none" xmlns="http://www.w3.org/2000/svg">
<path d="M80.3018 17.4144L81.1967 16.9681C81.0275 16.6288 80.681 16.4144 80.3018 16.4144V17.4144ZM76.6634 17.4144L75.697 17.1573L75.696 17.1611L76.6634 17.4144ZM10.7576 17.4144L11.725 17.1611L11.723 17.1535L10.7576 17.4144ZM7.53261 17.4144V16.4144C7.15348 16.4144 6.80694 16.6288 6.63773 16.9681L7.53261 17.4144ZM4.22492 24.0465L3.33004 23.6002C3.17544 23.9102 3.19227 24.2781 3.37453 24.5727C3.5568 24.8672 3.87852 25.0465 4.22492 25.0465V24.0465ZM83.6095 24.0465V25.0465C83.9559 25.0465 84.2777 24.8672 84.4599 24.5727C84.6422 24.2781 84.659 23.9102 84.5044 23.6002L83.6095 24.0465ZM28.2882 13.2695V12.2695C28.023 12.2695 27.7686 12.3748 27.5811 12.5623C27.3936 12.7499 27.2882 13.0042 27.2882 13.2695L28.2882 13.2695ZM40.1132 1L41.0804 0.745787C41.0127 0.488415 40.8453 0.268622 40.6151 0.135064C40.3849 0.00150609 40.111 -0.0348004 39.854 0.0341818L40.1132 1ZM8.60745 9.45597L8.34823 8.49015C8.0918 8.55898 7.87327 8.72695 7.7408 8.95705C7.60834 9.18715 7.57281 9.46048 7.64206 9.7168L8.60745 9.45597ZM77.9863 12.4404L78.9527 12.6975C79.0944 12.1648 78.7783 11.6179 78.246 11.4748L77.9863 12.4404ZM50.8632 5.14508L51.123 4.17941C50.8662 4.11034 50.5924 4.14639 50.3623 4.27959C50.1321 4.4128 49.9645 4.63219 49.8965 4.88926L50.8632 5.14508ZM56.4036 13.2695L57.4036 13.2694C57.4036 12.7172 56.9559 12.2695 56.4036 12.2695V13.2695ZM31.6865 34.8237C31.6865 34.2714 31.2387 33.8237 30.6865 33.8237C30.1342 33.8237 29.6865 34.2714 29.6865 34.8237H31.6865ZM58.148 34.8237C58.148 34.2714 57.7003 33.8237 57.148 33.8237C56.5957 33.8237 56.148 34.2714 56.148 34.8237H58.148ZM83.6923 24.0465L84.6913 24.0012C84.6671 23.4671 84.227 23.0465 83.6923 23.0465V24.0465ZM4.30769 24.0465V23.0465C3.77302 23.0465 3.33294 23.4671 3.30872 24.0012L4.30769 24.0465ZM1 97L0.00102627 96.9547C-0.0113422 97.2275 0.0883869 97.4935 0.277057 97.6909C0.465727 97.8883 0.726924 98 1 98V97ZM87 97V98C87.2731 98 87.5343 97.8883 87.7229 97.6909C87.9116 97.4935 88.0113 97.2275 87.999 96.9547L87 97ZM80.3018 16.4144H76.6634V18.4144H80.3018V16.4144ZM75.696 17.1611L73.9595 23.7932L75.8942 24.2998L77.6308 17.6677L75.696 17.1611ZM74.9268 23.0465H56.4038V25.0465H74.9268V23.0465ZM56.4038 23.0465H28.2884V25.0465H56.4038V23.0465ZM28.2884 23.0465H12.4942V25.0465H28.2884V23.0465ZM13.4615 23.7932L11.725 17.1611L9.79022 17.6677L11.5268 24.2998L13.4615 23.7932ZM10.7576 16.4144H7.53261V18.4144H10.7576V16.4144ZM6.63773 16.9681L3.33004 23.6002L5.1198 24.4928L8.42749 17.8607L6.63773 16.9681ZM4.22492 25.0465H83.6095V23.0465H4.22492V25.0465ZM84.5044 23.6002L81.1967 16.9681L79.407 17.8607L82.7147 24.4928L84.5044 23.6002ZM29.2884 24.0465L29.2882 13.2694L27.2882 13.2695L27.2884 24.0465L29.2884 24.0465ZM28.2882 14.2695H43.3382V12.2695H28.2882V14.2695ZM44.3054 13.0152L41.0804 0.745787L39.1461 1.25421L42.3711 13.5237L44.3054 13.0152ZM39.854 0.0341818L8.34823 8.49015L8.86667 10.4218L40.3724 1.96582L39.854 0.0341818ZM7.64206 9.7168L9.79222 17.6752L11.723 17.1535L9.57284 9.19515L7.64206 9.7168ZM77.6298 17.6714L78.9527 12.6975L77.0199 12.1834L75.697 17.1573L77.6298 17.6714ZM78.246 11.4748L51.123 4.17941L50.6035 6.11076L77.7265 13.4061L78.246 11.4748ZM49.8965 4.88926L47.7465 13.0136L49.6799 13.5253L51.8299 5.40091L49.8965 4.88926ZM48.7132 14.2695H56.4036V12.2695H48.7132V14.2695ZM55.4036 13.2695L55.4038 24.0465L57.4038 24.0465L57.4036 13.2694L55.4036 13.2695ZM48.7132 12.2695H43.3382V14.2695H48.7132V12.2695ZM32.1672 34.8237C32.1672 35.6474 31.5019 36.3108 30.6865 36.3108V38.3108C32.6112 38.3108 34.1672 36.7472 34.1672 34.8237H32.1672ZM30.6865 36.3108C29.871 36.3108 29.2057 35.6474 29.2057 34.8237H27.2057C27.2057 36.7472 28.7617 38.3108 30.6865 38.3108V36.3108ZM29.2057 34.8237C29.2057 34.0001 29.871 33.3367 30.6865 33.3367V31.3367C28.7617 31.3367 27.2057 32.9003 27.2057 34.8237H29.2057ZM30.6865 33.3367C31.5019 33.3367 32.1672 34.0001 32.1672 34.8237H34.1672C34.1672 32.9003 32.6112 31.3367 30.6865 31.3367V33.3367ZM58.6288 34.8237C58.6288 35.6474 57.9634 36.3108 57.148 36.3108V38.3108C59.0728 38.3108 60.6288 36.7472 60.6288 34.8237H58.6288ZM57.148 36.3108C56.3326 36.3108 55.6672 35.6474 55.6672 34.8237H53.6672C53.6672 36.7472 55.2232 38.3108 57.148 38.3108V36.3108ZM55.6672 34.8237C55.6672 34.0001 56.3326 33.3367 57.148 33.3367V31.3367C55.2232 31.3367 53.6672 32.9003 53.6672 34.8237H55.6672ZM57.148 33.3367C57.9634 33.3367 58.6288 34.0001 58.6288 34.8237H60.6288C60.6288 32.9003 59.0728 31.3367 57.148 31.3367V33.3367ZM29.6865 34.8237V42.2849H31.6865V34.8237H29.6865ZM29.6865 42.2849C29.6865 50.1301 36.0856 56.5492 43.9172 56.5492V54.5492C37.195 54.5492 31.6865 49.0303 31.6865 42.2849H29.6865ZM43.9172 56.5492C51.7488 56.5492 58.148 50.1301 58.148 42.2849H56.148C56.148 49.0303 50.6395 54.5492 43.9172 54.5492V56.5492ZM58.148 42.2849V34.8237H56.148V42.2849H58.148ZM83.6923 23.0465H74.9268V25.0465H83.6923V23.0465ZM12.4942 23.0465H4.30769V25.0465H12.4942V23.0465ZM3.30872 24.0012L0.00102627 96.9547L1.99897 97.0453L5.30667 24.0918L3.30872 24.0012ZM1 98H87V96H1V98ZM87.999 96.9547L84.6913 24.0012L82.6933 24.0918L86.001 97.0453L87.999 96.9547Z" fill="#1D4F41"/>
<path d="M80.3018 17.4144L81.1967 16.9681C81.0275 16.6288 80.681 16.4144 80.3018 16.4144V17.4144ZM76.6634 17.4144L75.697 17.1573L75.696 17.1611L76.6634 17.4144ZM10.7576 17.4144L11.725 17.1611L11.723 17.1535L10.7576 17.4144ZM7.53261 17.4144V16.4144C7.15348 16.4144 6.80694 16.6288 6.63773 16.9681L7.53261 17.4144ZM4.22492 24.0465L3.33004 23.6002C3.17544 23.9102 3.19227 24.2781 3.37453 24.5727C3.5568 24.8672 3.87852 25.0465 4.22492 25.0465V24.0465ZM83.6095 24.0465V25.0465C83.9559 25.0465 84.2777 24.8672 84.4599 24.5727C84.6422 24.2781 84.659 23.9102 84.5044 23.6002L83.6095 24.0465ZM28.2882 13.2695V12.2695C28.023 12.2695 27.7686 12.3748 27.5811 12.5623C27.3936 12.7499 27.2882 13.0042 27.2882 13.2695L28.2882 13.2695ZM40.1132 1L41.0804 0.745787C41.0127 0.488415 40.8453 0.268622 40.6151 0.135064C40.3849 0.00150609 40.111 -0.0348004 39.854 0.0341818L40.1132 1ZM8.60745 9.45597L8.34823 8.49015C8.0918 8.55898 7.87327 8.72695 7.7408 8.95705C7.60834 9.18715 7.57281 9.46048 7.64206 9.7168L8.60745 9.45597ZM77.9863 12.4404L78.9527 12.6975C79.0944 12.1648 78.7783 11.6179 78.246 11.4748L77.9863 12.4404ZM50.8632 5.14508L51.123 4.17941C50.8662 4.11034 50.5924 4.14639 50.3623 4.27959C50.1321 4.4128 49.9645 4.63219 49.8965 4.88926L50.8632 5.14508ZM56.4036 13.2695L57.4036 13.2694C57.4036 12.7172 56.9559 12.2695 56.4036 12.2695V13.2695ZM31.6865 34.8237C31.6865 34.2714 31.2387 33.8237 30.6865 33.8237C30.1342 33.8237 29.6865 34.2714 29.6865 34.8237H31.6865ZM58.148 34.8237C58.148 34.2714 57.7003 33.8237 57.148 33.8237C56.5957 33.8237 56.148 34.2714 56.148 34.8237H58.148ZM83.6923 24.0465L84.6913 24.0012C84.6671 23.4671 84.227 23.0465 83.6923 23.0465V24.0465ZM4.30769 24.0465V23.0465C3.77302 23.0465 3.33294 23.4671 3.30872 24.0012L4.30769 24.0465ZM1 97L0.00102627 96.9547C-0.0113422 97.2275 0.0883869 97.4935 0.277057 97.6909C0.465727 97.8883 0.726924 98 1 98V97ZM87 97V98C87.2731 98 87.5343 97.8883 87.7229 97.6909C87.9116 97.4935 88.0113 97.2275 87.999 96.9547L87 97ZM80.3018 16.4144H76.6634V18.4144H80.3018V16.4144ZM75.696 17.1611L73.9595 23.7932L75.8942 24.2998L77.6308 17.6677L75.696 17.1611ZM74.9268 23.0465H56.4038V25.0465H74.9268V23.0465ZM56.4038 23.0465H28.2884V25.0465H56.4038V23.0465ZM28.2884 23.0465H12.4942V25.0465H28.2884V23.0465ZM13.4615 23.7932L11.725 17.1611L9.79022 17.6677L11.5268 24.2998L13.4615 23.7932ZM10.7576 16.4144H7.53261V18.4144H10.7576V16.4144ZM6.63773 16.9681L3.33004 23.6002L5.1198 24.4928L8.42749 17.8607L6.63773 16.9681ZM4.22492 25.0465H83.6095V23.0465H4.22492V25.0465ZM84.5044 23.6002L81.1967 16.9681L79.407 17.8607L82.7147 24.4928L84.5044 23.6002ZM29.2884 24.0465L29.2882 13.2694L27.2882 13.2695L27.2884 24.0465L29.2884 24.0465ZM28.2882 14.2695H43.3382V12.2695H28.2882V14.2695ZM44.3054 13.0152L41.0804 0.745787L39.1461 1.25421L42.3711 13.5237L44.3054 13.0152ZM39.854 0.0341818L8.34823 8.49015L8.86667 10.4218L40.3724 1.96582L39.854 0.0341818ZM7.64206 9.7168L9.79222 17.6752L11.723 17.1535L9.57284 9.19515L7.64206 9.7168ZM77.6298 17.6714L78.9527 12.6975L77.0199 12.1834L75.697 17.1573L77.6298 17.6714ZM78.246 11.4748L51.123 4.17941L50.6035 6.11076L77.7265 13.4061L78.246 11.4748ZM49.8965 4.88926L47.7465 13.0136L49.6799 13.5253L51.8299 5.40091L49.8965 4.88926ZM48.7132 14.2695H56.4036V12.2695H48.7132V14.2695ZM55.4036 13.2695L55.4038 24.0465L57.4038 24.0465L57.4036 13.2694L55.4036 13.2695ZM48.7132 12.2695H43.3382V14.2695H48.7132V12.2695ZM32.1672 34.8237C32.1672 35.6474 31.5019 36.3108 30.6865 36.3108V38.3108C32.6112 38.3108 34.1672 36.7472 34.1672 34.8237H32.1672ZM30.6865 36.3108C29.871 36.3108 29.2057 35.6474 29.2057 34.8237H27.2057C27.2057 36.7472 28.7617 38.3108 30.6865 38.3108V36.3108ZM29.2057 34.8237C29.2057 34.0001 29.871 33.3367 30.6865 33.3367V31.3367C28.7617 31.3367 27.2057 32.9003 27.2057 34.8237H29.2057ZM30.6865 33.3367C31.5019 33.3367 32.1672 34.0001 32.1672 34.8237H34.1672C34.1672 32.9003 32.6112 31.3367 30.6865 31.3367V33.3367ZM58.6288 34.8237C58.6288 35.6474 57.9634 36.3108 57.148 36.3108V38.3108C59.0728 38.3108 60.6288 36.7472 60.6288 34.8237H58.6288ZM57.148 36.3108C56.3326 36.3108 55.6672 35.6474 55.6672 34.8237H53.6672C53.6672 36.7472 55.2232 38.3108 57.148 38.3108V36.3108ZM55.6672 34.8237C55.6672 34.0001 56.3326 33.3367 57.148 33.3367V31.3367C55.2232 31.3367 53.6672 32.9003 53.6672 34.8237H55.6672ZM57.148 33.3367C57.9634 33.3367 58.6288 34.0001 58.6288 34.8237H60.6288C60.6288 32.9003 59.0728 31.3367 57.148 31.3367V33.3367ZM29.6865 34.8237V42.2849H31.6865V34.8237H29.6865ZM29.6865 42.2849C29.6865 50.1301 36.0856 56.5492 43.9172 56.5492V54.5492C37.195 54.5492 31.6865 49.0303 31.6865 42.2849H29.6865ZM43.9172 56.5492C51.7488 56.5492 58.148 50.1301 58.148 42.2849H56.148C56.148 49.0303 50.6395 54.5492 43.9172 54.5492V56.5492ZM58.148 42.2849V34.8237H56.148V42.2849H58.148ZM83.6923 23.0465H74.9268V25.0465H83.6923V23.0465ZM12.4942 23.0465H4.30769V25.0465H12.4942V23.0465ZM3.30872 24.0012L0.00102627 96.9547L1.99897 97.0453L5.30667 24.0918L3.30872 24.0012ZM1 98H87V96H1V98ZM87.999 96.9547L84.6913 24.0012L82.6933 24.0918L86.001 97.0453L87.999 96.9547Z" fill="url(#paint0_radial)" fill-opacity="0.4" style="mix-blend-mode:overlay"/>
<defs>
<radialGradient id="paint0_radial" cx="0" cy="0" r="1" gradientUnits="userSpaceOnUse" gradientTransform="translate(1 1) rotate(48.145) scale(128.888 98.0111)">
<stop stop-color="white"/>
<stop offset="1" stop-color="white" stop-opacity="0"/>
</radialGradient>
</defs>
</svg>
