<svg width="119" height="77" viewBox="0 0 119 77" fill="none" xmlns="http://www.w3.org/2000/svg">
<path d="M57.2031 73.2457L57.427 73.3647L61.6905 75.6296C62.6563 76.1546 63.7564 76.3695 64.8451 76.2459C65.9339 76.1222 66.9599 75.6658 67.7875 74.9371V74.9371C68.7723 74.0694 69.4153 72.8698 69.5981 71.5591C69.7809 70.2484 69.4912 68.9148 68.7823 67.8037C68.6458 67.5869 68.4951 67.3796 68.3311 67.1834L68.8391 67.7785L71.4151 70.7898C71.8812 71.3349 72.4485 71.7815 73.0846 72.1041C73.7208 72.4267 74.4133 72.6189 75.1227 72.6698C75.832 72.7207 76.5443 72.6293 77.2188 72.4008C77.8934 72.1723 78.5169 71.8111 79.054 71.338V71.338C79.5914 70.8651 80.0318 70.2894 80.3499 69.6436C80.6679 68.9979 80.8575 68.2949 80.9076 67.5747C80.9578 66.8546 80.8676 66.1315 80.6422 65.4467C80.4168 64.762 80.0606 64.1291 79.594 63.5842L81.7507 66.1087C82.7092 67.1481 84.0275 67.7696 85.4283 67.8427C86.8291 67.9157 88.2032 67.4345 89.2616 66.5003C90.3201 65.5661 90.9804 64.2517 91.1036 62.8335C91.2269 61.4152 90.8035 60.0038 89.9225 58.8959L88.8353 57.6229C89.3011 58.1684 89.8684 58.6154 90.5045 58.9383C91.1407 59.2611 91.8333 59.4535 92.5428 59.5044C93.2523 59.5553 93.9647 59.4638 94.6393 59.235C95.3139 59.0062 95.9374 58.6446 96.4742 58.171C97.0117 57.6982 97.4521 57.1225 97.7701 56.4767C98.0882 55.831 98.2777 55.128 98.3279 54.4078C98.3781 53.6877 98.2879 52.9645 98.0625 52.2798C97.8371 51.5951 97.4809 50.9622 97.0143 50.4173L95.22 48.4121L74.3747 25.3096L67.1515 21.6816C64.9199 20.5571 62.4549 19.9931 59.9638 20.0371C58.0456 20.0697 56.1517 20.4775 54.3856 21.238L47.5035 24.2061L45.2012 25.1762C42.0399 26.5018 38.543 26.7635 35.2244 25.9227L34.6346 25.7749C34.2747 25.6809 33.9382 25.5113 33.6469 25.2772C33.1963 24.9085 32.838 24.437 32.601 23.9011C32.3641 23.3652 32.2552 22.7801 32.2832 22.1934C32.3113 21.6067 32.4755 21.035 32.7625 20.5249C33.0495 20.0148 33.4511 19.5808 33.9347 19.2581L35.768 18.0319C39.6642 15.4337 43.259 12.3971 46.4838 8.9799L47.3472 8.06388C48.5694 6.76919 50.5235 5.44925 52.7051 4.31324C54.096 3.58677 55.532 2.95311 57.0042 2.41628H57.0539C53.4739 1.77583 49.807 1.82722 46.2457 2.56774L30.9928 5.73415L23.6594 5.18598L14.4217 1.12158L0.93457 32.728L10.3891 36.8825L15.15 39.5945L21.9362 47.2184" stroke="#1D4F41" stroke-width="2" stroke-miterlimit="10"/>
<path d="M57.2031 73.2457L57.427 73.3647L61.6905 75.6296C62.6563 76.1546 63.7564 76.3695 64.8451 76.2459C65.9339 76.1222 66.9599 75.6658 67.7875 74.9371V74.9371C68.7723 74.0694 69.4153 72.8698 69.5981 71.5591C69.7809 70.2484 69.4912 68.9148 68.7823 67.8037C68.6458 67.5869 68.4951 67.3796 68.3311 67.1834L68.8391 67.7785L71.4151 70.7898C71.8812 71.3349 72.4485 71.7815 73.0846 72.1041C73.7208 72.4267 74.4133 72.6189 75.1227 72.6698C75.832 72.7207 76.5443 72.6293 77.2188 72.4008C77.8934 72.1723 78.5169 71.8111 79.054 71.338V71.338C79.5914 70.8651 80.0318 70.2894 80.3499 69.6436C80.6679 68.9979 80.8575 68.2949 80.9076 67.5747C80.9578 66.8546 80.8676 66.1315 80.6422 65.4467C80.4168 64.762 80.0606 64.1291 79.594 63.5842L81.7507 66.1087C82.7092 67.1481 84.0275 67.7696 85.4283 67.8427C86.8291 67.9157 88.2032 67.4345 89.2616 66.5003C90.3201 65.5661 90.9804 64.2517 91.1036 62.8335C91.2269 61.4152 90.8035 60.0038 89.9225 58.8959L88.8353 57.6229C89.3011 58.1684 89.8684 58.6154 90.5045 58.9383C91.1407 59.2611 91.8333 59.4535 92.5428 59.5044C93.2523 59.5553 93.9647 59.4638 94.6393 59.235C95.3139 59.0062 95.9374 58.6446 96.4742 58.171C97.0117 57.6982 97.4521 57.1225 97.7701 56.4767C98.0882 55.831 98.2777 55.128 98.3279 54.4078C98.3781 53.6877 98.2879 52.9645 98.0625 52.2798C97.8371 51.5951 97.4809 50.9622 97.0143 50.4173L95.22 48.4121L74.3747 25.3096L67.1515 21.6816C64.9199 20.5571 62.4549 19.9931 59.9638 20.0371C58.0456 20.0697 56.1517 20.4775 54.3856 21.238L47.5035 24.2061L45.2012 25.1762C42.0399 26.5018 38.543 26.7635 35.2244 25.9227L34.6346 25.7749C34.2747 25.6809 33.9382 25.5113 33.6469 25.2772C33.1963 24.9085 32.838 24.437 32.601 23.9011C32.3641 23.3652 32.2552 22.7801 32.2832 22.1934C32.3113 21.6067 32.4755 21.035 32.7625 20.5249C33.0495 20.0148 33.4511 19.5808 33.9347 19.2581L35.768 18.0319C39.6642 15.4337 43.259 12.3971 46.4838 8.9799L47.3472 8.06388C48.5694 6.76919 50.5235 5.44925 52.7051 4.31324C54.096 3.58677 55.532 2.95311 57.0042 2.41628H57.0539C53.4739 1.77583 49.807 1.82722 46.2457 2.56774L30.9928 5.73415L23.6594 5.18598L14.4217 1.12158L0.93457 32.728L10.3891 36.8825L15.15 39.5945L21.9362 47.2184" stroke="url(#paint0_radial)" stroke-opacity="0.4" stroke-width="2" stroke-miterlimit="10" style="mix-blend-mode:overlay"/>
<path d="M38.7273 45.0224L39.8572 43.7854C40.8325 42.7151 41.3489 41.2954 41.293 39.8386C41.237 38.3817 40.6132 37.0072 39.5587 36.0172C38.5043 35.0273 37.1056 34.503 35.6704 34.5598C34.2351 34.6167 32.8809 35.2499 31.9056 36.3202L21.8969 47.3124L21.4208 47.8353C20.9377 48.3652 20.5623 48.9865 20.3159 49.6638C20.0694 50.341 19.9569 51.0608 19.9846 51.7822C20.0123 52.5036 20.1798 53.2123 20.4774 53.868C20.775 54.5237 21.197 55.1134 21.7192 55.6035V55.6035C22.7706 56.592 24.1653 57.1167 25.5974 57.0626C27.0295 57.0085 28.382 56.38 29.3581 55.315L38.7273 45.0224Z" stroke="#1D4F41" stroke-width="2" stroke-miterlimit="10"/>
<path d="M38.7273 45.0224L39.8572 43.7854C40.8325 42.7151 41.3489 41.2954 41.293 39.8386C41.237 38.3817 40.6132 37.0072 39.5587 36.0172C38.5043 35.0273 37.1056 34.503 35.6704 34.5598C34.2351 34.6167 32.8809 35.2499 31.9056 36.3202L21.8969 47.3124L21.4208 47.8353C20.9377 48.3652 20.5623 48.9865 20.3159 49.6638C20.0694 50.341 19.9569 51.0608 19.9846 51.7822C20.0123 52.5036 20.1798 53.2123 20.4774 53.868C20.775 54.5237 21.197 55.1134 21.7192 55.6035V55.6035C22.7706 56.592 24.1653 57.1167 25.5974 57.0626C27.0295 57.0085 28.382 56.38 29.3581 55.315L38.7273 45.0224Z" stroke="url(#paint1_radial)" stroke-opacity="0.4" stroke-width="2" stroke-miterlimit="10" style="mix-blend-mode:overlay"/>
<path d="M38.4295 61.5574L43.2899 56.2236L46.6937 52.491C47.6694 51.4188 48.1856 49.997 48.1286 48.5385C48.0717 47.08 47.4462 45.7042 46.3899 44.7138C45.3336 43.7234 43.9329 43.1994 42.496 43.2573C41.0591 43.3151 39.7037 43.9499 38.7279 45.0221V45.0221L29.3729 55.304L28.2573 56.5301C27.282 57.6004 26.7655 59.0201 26.8215 60.4769C26.8775 61.9338 27.5013 63.3083 28.5557 64.2983C29.6102 65.2882 31.0089 65.8125 32.4441 65.7557C33.8793 65.6988 35.2336 65.0656 36.2089 63.9953L37.8326 62.2138L38.4437 61.5466L38.4295 61.5574Z" stroke="#1D4F41" stroke-width="2" stroke-miterlimit="10"/>
<path d="M38.4295 61.5574L43.2899 56.2236L46.6937 52.491C47.6694 51.4188 48.1856 49.997 48.1286 48.5385C48.0717 47.08 47.4462 45.7042 46.3899 44.7138C45.3336 43.7234 43.9329 43.1994 42.496 43.2573C41.0591 43.3151 39.7037 43.9499 38.7279 45.0221V45.0221L29.3729 55.304L28.2573 56.5301C27.282 57.6004 26.7655 59.0201 26.8215 60.4769C26.8775 61.9338 27.5013 63.3083 28.5557 64.2983C29.6102 65.2882 31.0089 65.8125 32.4441 65.7557C33.8793 65.6988 35.2336 65.0656 36.2089 63.9953L37.8326 62.2138L38.4437 61.5466L38.4295 61.5574Z" stroke="url(#paint2_radial)" stroke-opacity="0.4" stroke-width="2" stroke-miterlimit="10" style="mix-blend-mode:overlay"/>
<path d="M56.926 57.3958C57.409 56.8659 57.7845 56.2446 58.0309 55.5674C58.2773 54.8902 58.3899 54.1704 58.3622 53.449C58.3345 52.7276 58.167 52.0189 57.8694 51.3632C57.5718 50.7075 57.1498 50.1178 56.6276 49.6277C56.1057 49.1372 55.4938 48.7558 54.8268 48.5054C54.1597 48.2549 53.4506 48.1403 52.7399 48.1681C52.0292 48.1959 51.3309 48.3656 50.6848 48.6674C50.0387 48.9692 49.4575 49.3972 48.9744 49.927L43.3465 56.112L38.4825 61.4458C38.2818 61.6704 38.1 61.9117 37.9389 62.1671C37.2342 63.2532 36.932 64.558 37.0862 65.8491C37.2404 67.1402 37.841 68.3338 38.7809 69.2176V69.2176C39.303 69.7079 39.9151 70.089 40.5823 70.3391C41.2494 70.5892 41.9586 70.7035 42.6693 70.6754C43.38 70.6472 44.0783 70.4772 44.7243 70.1751C45.3702 69.873 45.9512 69.4447 46.4341 68.9146L47.2548 68.0167L55.8566 58.5787L56.926 57.3958Z" stroke="#1D4F41" stroke-width="2" stroke-miterlimit="10"/>
<path d="M56.926 57.3958C57.409 56.8659 57.7845 56.2446 58.0309 55.5674C58.2773 54.8902 58.3899 54.1704 58.3622 53.449C58.3345 52.7276 58.167 52.0189 57.8694 51.3632C57.5718 50.7075 57.1498 50.1178 56.6276 49.6277C56.1057 49.1372 55.4938 48.7558 54.8268 48.5054C54.1597 48.2549 53.4506 48.1403 52.7399 48.1681C52.0292 48.1959 51.3309 48.3656 50.6848 48.6674C50.0387 48.9692 49.4575 49.3972 48.9744 49.927L43.3465 56.112L38.4825 61.4458C38.2818 61.6704 38.1 61.9117 37.9389 62.1671C37.2342 63.2532 36.932 64.558 37.0862 65.8491C37.2404 67.1402 37.841 68.3338 38.7809 69.2176V69.2176C39.303 69.7079 39.9151 70.089 40.5823 70.3391C41.2494 70.5892 41.9586 70.7035 42.6693 70.6754C43.38 70.6472 44.0783 70.4772 44.7243 70.1751C45.3702 69.873 45.9512 69.4447 46.4341 68.9146L47.2548 68.0167L55.8566 58.5787L56.926 57.3958Z" stroke="url(#paint3_radial)" stroke-opacity="0.4" stroke-width="2" stroke-miterlimit="10" style="mix-blend-mode:overlay"/>
<path d="M68.0252 61.4671C69.0009 60.3963 69.5176 58.9759 69.4617 57.5185C69.4057 56.061 68.7816 54.6858 67.7267 53.6953V53.6953C66.672 52.706 65.2734 52.1822 63.8384 52.239C62.4034 52.2958 61.0493 52.9286 60.0736 53.9983L56.8759 57.5037L55.81 58.6866L49.5816 65.5171C48.6394 66.5536 48.1258 67.9182 48.1471 69.3284C48.1684 70.7386 48.723 72.0865 49.6961 73.0933C50.6693 74.1 51.9864 74.6885 53.3751 74.737C54.7637 74.7855 56.1176 74.2902 57.1566 73.3537C57.2888 73.2409 57.4145 73.1205 57.5332 72.9931L68.0252 61.4671Z" stroke="#1D4F41" stroke-width="2" stroke-miterlimit="10"/>
<path d="M68.0252 61.4671C69.0009 60.3963 69.5176 58.9759 69.4617 57.5185C69.4057 56.061 68.7816 54.6858 67.7267 53.6953V53.6953C66.672 52.706 65.2734 52.1822 63.8384 52.239C62.4034 52.2958 61.0493 52.9286 60.0736 53.9983L56.8759 57.5037L55.81 58.6866L49.5816 65.5171C48.6394 66.5536 48.1258 67.9182 48.1471 69.3284C48.1684 70.7386 48.723 72.0865 49.6961 73.0933C50.6693 74.1 51.9864 74.6885 53.3751 74.737C54.7637 74.7855 56.1176 74.2902 57.1566 73.3537C57.2888 73.2409 57.4145 73.1205 57.5332 72.9931L68.0252 61.4671Z" stroke="url(#paint4_radial)" stroke-opacity="0.4" stroke-width="2" stroke-miterlimit="10" style="mix-blend-mode:overlay"/>
<path d="M105.594 1.12164L96.2285 4.88311L88.8809 5.19686L73.7381 1.52195C71.1672 0.897708 68.5237 0.636786 65.8825 0.74658H65.8576C64.6391 0.796034 63.4251 0.924928 62.2229 1.13246V1.13246C60.4549 1.33632 58.7185 1.7615 57.0533 2.39831H57.0036C56.6731 2.51732 56.3392 2.64715 56.0016 2.78058L55.8595 2.83829C55.5184 2.97533 55.1773 3.11958 54.8363 3.27105C54.481 3.42973 54.1257 3.58841 53.7704 3.75792H53.7384C51.1483 5.00212 48.7642 6.53483 47.343 8.03149L46.4796 8.94751C43.2577 12.3758 39.6641 15.4234 35.7674 18.032L33.9341 19.2582C33.4505 19.5808 33.0489 20.0149 32.7619 20.525C32.4749 21.0351 32.3107 21.6067 32.2826 22.1934C32.2546 22.7802 32.3635 23.3653 32.6004 23.9012C32.8374 24.4371 33.1958 24.9086 33.6463 25.2772C33.9376 25.5114 34.2741 25.6809 34.634 25.7749L35.2238 25.9228C37.9682 26.6218 40.8466 26.5658 43.5626 25.7605L43.6941 25.7172C43.8966 25.6559 44.0991 25.591 44.2981 25.5189L44.4793 25.4576C44.7209 25.3674 44.9625 25.2772 45.1899 25.1763L47.4922 24.2061L54.3886 21.2381C56.1546 20.4775 58.0486 20.0698 59.9668 20.0372C62.4566 19.9937 64.9204 20.5577 67.1509 21.6817L74.3599 25.3097L95.2194 48.4122L103.64 39.5333L108.486 36.9764L118.079 33.1284L105.594 1.12164Z" stroke="#1D4F41" stroke-width="2" stroke-miterlimit="10"/>
<path d="M105.594 1.12164L96.2285 4.88311L88.8809 5.19686L73.7381 1.52195C71.1672 0.897708 68.5237 0.636786 65.8825 0.74658H65.8576C64.6391 0.796034 63.4251 0.924928 62.2229 1.13246V1.13246C60.4549 1.33632 58.7185 1.7615 57.0533 2.39831H57.0036C56.6731 2.51732 56.3392 2.64715 56.0016 2.78058L55.8595 2.83829C55.5184 2.97533 55.1773 3.11958 54.8363 3.27105C54.481 3.42973 54.1257 3.58841 53.7704 3.75792H53.7384C51.1483 5.00212 48.7642 6.53483 47.343 8.03149L46.4796 8.94751C43.2577 12.3758 39.6641 15.4234 35.7674 18.032L33.9341 19.2582C33.4505 19.5808 33.0489 20.0149 32.7619 20.525C32.4749 21.0351 32.3107 21.6067 32.2826 22.1934C32.2546 22.7802 32.3635 23.3653 32.6004 23.9012C32.8374 24.4371 33.1958 24.9086 33.6463 25.2772C33.9376 25.5114 34.2741 25.6809 34.634 25.7749L35.2238 25.9228C37.9682 26.6218 40.8466 26.5658 43.5626 25.7605L43.6941 25.7172C43.8966 25.6559 44.0991 25.591 44.2981 25.5189L44.4793 25.4576C44.7209 25.3674 44.9625 25.2772 45.1899 25.1763L47.4922 24.2061L54.3886 21.2381C56.1546 20.4775 58.0486 20.0698 59.9668 20.0372C62.4566 19.9937 64.9204 20.5577 67.1509 21.6817L74.3599 25.3097L95.2194 48.4122L103.64 39.5333L108.486 36.9764L118.079 33.1284L105.594 1.12164Z" stroke="url(#paint5_radial)" stroke-opacity="0.4" stroke-width="2" stroke-miterlimit="10" style="mix-blend-mode:overlay"/>
<path d="M108.498 36.9946L96.2295 4.8833" stroke="#1D4F41" stroke-width="2" stroke-miterlimit="10"/>
<path d="M108.498 36.9946L96.2295 4.8833" stroke="url(#paint6_radial)" stroke-opacity="0.4" stroke-width="2" stroke-miterlimit="10" style="mix-blend-mode:overlay"/>
<path d="M10.3887 36.8826L23.6591 5.18604" stroke="#1D4F41" stroke-width="2" stroke-miterlimit="10"/>
<path d="M10.3887 36.8826L23.6591 5.18604" stroke="url(#paint7_radial)" stroke-opacity="0.4" stroke-width="2" stroke-miterlimit="10" style="mix-blend-mode:overlay"/>
<defs>
<radialGradient id="paint0_radial" cx="0" cy="0" r="1" gradientUnits="userSpaceOnUse" gradientTransform="translate(0.93457 1.12158) rotate(37.6535) scale(123.032 91.0469)">
<stop stop-color="white"/>
<stop offset="1" stop-color="white" stop-opacity="0"/>
</radialGradient>
<radialGradient id="paint1_radial" cx="0" cy="0" r="1" gradientUnits="userSpaceOnUse" gradientTransform="translate(19.9805 34.5557) rotate(46.5607) scale(31.0021 23.6828)">
<stop stop-color="white"/>
<stop offset="1" stop-color="white" stop-opacity="0"/>
</radialGradient>
<radialGradient id="paint2_radial" cx="0" cy="0" r="1" gradientUnits="userSpaceOnUse" gradientTransform="translate(26.8174 43.2529) rotate(46.5573) scale(30.9986 23.6803)">
<stop stop-color="white"/>
<stop offset="1" stop-color="white" stop-opacity="0"/>
</radialGradient>
<radialGradient id="paint3_radial" cx="0" cy="0" r="1" gradientUnits="userSpaceOnUse" gradientTransform="translate(37.0469 48.1641) rotate(46.5629) scale(31.0075 23.6868)">
<stop stop-color="white"/>
<stop offset="1" stop-color="white" stop-opacity="0"/>
</radialGradient>
<radialGradient id="paint4_radial" cx="0" cy="0" r="1" gradientUnits="userSpaceOnUse" gradientTransform="translate(48.1465 52.2349) rotate(46.5503) scale(31.0001 23.6817)">
<stop stop-color="white"/>
<stop offset="1" stop-color="white" stop-opacity="0"/>
</radialGradient>
<radialGradient id="paint5_radial" cx="0" cy="0" r="1" gradientUnits="userSpaceOnUse" gradientTransform="translate(32.2783 0.722168) rotate(29.0663) scale(98.1639 63.78)">
<stop stop-color="white"/>
<stop offset="1" stop-color="white" stop-opacity="0"/>
</radialGradient>
<radialGradient id="paint6_radial" cx="0" cy="0" r="1" gradientUnits="userSpaceOnUse" gradientTransform="translate(96.2295 4.8833) rotate(69.0901) scale(34.3751 17.5356)">
<stop stop-color="white"/>
<stop offset="1" stop-color="white" stop-opacity="0"/>
</radialGradient>
<radialGradient id="paint7_radial" cx="0" cy="0" r="1" gradientUnits="userSpaceOnUse" gradientTransform="translate(10.3887 5.18604) rotate(67.2824) scale(34.3624 18.7296)">
<stop stop-color="white"/>
<stop offset="1" stop-color="white" stop-opacity="0"/>
</radialGradient>
</defs>
</svg>
