<svg width="116" height="116" viewBox="0 0 116 116" fill="none" xmlns="http://www.w3.org/2000/svg">
<path d="M63.6006 74.7995L74.8006 63.5995L52.4005 41.1996M63.6006 74.7995L41.2005 52.3996L52.4005 41.1996M63.6006 74.7995L58.0007 80.4L52.4005 74.8004M63.6006 74.7995L58.0007 69.2L52.4005 74.8004M52.4005 41.1996L58.0007 46.7992L63.6008 41.1993L58.0007 35.5993L52.4005 41.1996ZM74.8006 30.0002L63.6006 41.2002L41.2005 18.8003M74.8006 30.0002L52.4005 7.60034M74.8006 30.0002L80.3999 24.4009M74.8006 30.0002L69.1999 24.4007M41.2005 18.8003L52.4005 7.60034M41.2005 18.8003L35.6006 24.4007L41.2006 30.0007L46.8001 24.4009M41.2005 18.8003L46.8001 24.4009M52.4005 7.60034L58.0007 13.1999L63.6008 7.59997L58.0007 2L52.4005 7.60034ZM30 74.7995L41.2 63.5995L18.7999 41.1996M30 74.7995L7.59992 52.3996L18.7999 41.1996M30 74.7995L24.4 80.3993M30 74.7995L24.3998 69.2L18.7998 74.8L24.4 80.3993M18.7999 41.1996L24.3998 46.7992L29.9998 41.1993L24.3998 35.5993L18.7999 41.1996ZM97.1997 74.7995L108.4 63.5995L85.9997 41.1996M97.1997 74.7995L74.7997 52.3996L85.9997 41.1996M97.1997 74.7995L91.6003 80.4003M97.1997 74.7995L91.6 69.1994M85.9997 41.1996L91.5999 46.7992L97.1999 41.1993L91.5999 35.5993L85.9997 41.1996ZM91.6003 80.4003L80.4003 91.6002L74.8003 86.0002L86.0003 74.8003M91.6003 80.4003L86.0003 74.8003M86.0003 74.8003L91.6 69.1994M63.6006 108.4L74.8006 97.2003L52.4005 74.8004M63.6006 108.4L41.2005 86.0003L52.4005 74.8004M63.6006 108.4L58.0007 114L52.4002 108.4M63.6006 108.4L58.0002 102.8M69.1999 58.0007L57.9999 46.8008L80.3999 24.4009M69.1999 58.0007L91.6 35.6009L80.3999 24.4009M69.1999 58.0007L74.8005 63.6007L80.4005 58.0007L74.8005 52.4008L69.1999 58.0007ZM80.3999 24.4009L74.7999 18.8007M35.6001 91.5993L24.4 80.3993M35.6001 91.5993L58.0001 69.1994L46.8001 57.9995L24.4 80.3993M35.6001 91.5993L41.2006 97.1993L46.8006 91.5993L41.2006 85.9993L35.6001 91.5993ZM35.6001 58.0007L24.4 46.8008L46.8001 24.4009M35.6001 58.0007L58.0001 35.6009L46.8001 24.4009M35.6001 58.0007L41.2006 63.6007L46.8006 58.0007L41.2006 52.4008L35.6001 58.0007ZM69.1999 24.4007L57.9999 13.2008L63.5999 7.60081L74.7999 18.8007M69.1999 24.4007L74.7999 18.8007M69.1999 91.5993L57.9999 80.3993L80.3999 57.9995L91.6 69.1994M69.1999 91.5993L91.6 69.1994M69.1999 91.5993L74.8005 97.1993L80.4005 91.5993L74.8005 85.9993L69.1999 91.5993ZM102.801 58.0007L91.6005 46.8008L97.2005 41.2008L108.401 52.4008M102.801 58.0007L108.401 52.4008M102.801 58.0007L108.4 63.6007L114 58.0007L108.401 52.4008M52.4002 108.4L41.2002 97.2001L46.8002 91.6001L58.0002 102.8M52.4002 108.4L58.0002 102.8M41.2 30.0002L30 41.2002L24.3999 35.6002L35.6 24.4003L41.2 30.0002ZM18.8007 74.8L7.60065 63.6001L13.2007 58.0001L24.4007 69.2L18.8007 74.8ZM13.2 58.0007L7.60001 63.6007L2 58.0007L7.60001 52.4008L13.2 58.0007Z" stroke="#1D4F41" stroke-width="2"/>
<path d="M63.6006 74.7995L74.8006 63.5995L52.4005 41.1996M63.6006 74.7995L41.2005 52.3996L52.4005 41.1996M63.6006 74.7995L58.0007 80.4L52.4005 74.8004M63.6006 74.7995L58.0007 69.2L52.4005 74.8004M52.4005 41.1996L58.0007 46.7992L63.6008 41.1993L58.0007 35.5993L52.4005 41.1996ZM74.8006 30.0002L63.6006 41.2002L41.2005 18.8003M74.8006 30.0002L52.4005 7.60034M74.8006 30.0002L80.3999 24.4009M74.8006 30.0002L69.1999 24.4007M41.2005 18.8003L52.4005 7.60034M41.2005 18.8003L35.6006 24.4007L41.2006 30.0007L46.8001 24.4009M41.2005 18.8003L46.8001 24.4009M52.4005 7.60034L58.0007 13.1999L63.6008 7.59997L58.0007 2L52.4005 7.60034ZM30 74.7995L41.2 63.5995L18.7999 41.1996M30 74.7995L7.59992 52.3996L18.7999 41.1996M30 74.7995L24.4 80.3993M30 74.7995L24.3998 69.2L18.7998 74.8L24.4 80.3993M18.7999 41.1996L24.3998 46.7992L29.9998 41.1993L24.3998 35.5993L18.7999 41.1996ZM97.1997 74.7995L108.4 63.5995L85.9997 41.1996M97.1997 74.7995L74.7997 52.3996L85.9997 41.1996M97.1997 74.7995L91.6003 80.4003M97.1997 74.7995L91.6 69.1994M85.9997 41.1996L91.5999 46.7992L97.1999 41.1993L91.5999 35.5993L85.9997 41.1996ZM91.6003 80.4003L80.4003 91.6002L74.8003 86.0002L86.0003 74.8003M91.6003 80.4003L86.0003 74.8003M86.0003 74.8003L91.6 69.1994M63.6006 108.4L74.8006 97.2003L52.4005 74.8004M63.6006 108.4L41.2005 86.0003L52.4005 74.8004M63.6006 108.4L58.0007 114L52.4002 108.4M63.6006 108.4L58.0002 102.8M69.1999 58.0007L57.9999 46.8008L80.3999 24.4009M69.1999 58.0007L91.6 35.6009L80.3999 24.4009M69.1999 58.0007L74.8005 63.6007L80.4005 58.0007L74.8005 52.4008L69.1999 58.0007ZM80.3999 24.4009L74.7999 18.8007M35.6001 91.5993L24.4 80.3993M35.6001 91.5993L58.0001 69.1994L46.8001 57.9995L24.4 80.3993M35.6001 91.5993L41.2006 97.1993L46.8006 91.5993L41.2006 85.9993L35.6001 91.5993ZM35.6001 58.0007L24.4 46.8008L46.8001 24.4009M35.6001 58.0007L58.0001 35.6009L46.8001 24.4009M35.6001 58.0007L41.2006 63.6007L46.8006 58.0007L41.2006 52.4008L35.6001 58.0007ZM69.1999 24.4007L57.9999 13.2008L63.5999 7.60081L74.7999 18.8007M69.1999 24.4007L74.7999 18.8007M69.1999 91.5993L57.9999 80.3993L80.3999 57.9995L91.6 69.1994M69.1999 91.5993L91.6 69.1994M69.1999 91.5993L74.8005 97.1993L80.4005 91.5993L74.8005 85.9993L69.1999 91.5993ZM102.801 58.0007L91.6005 46.8008L97.2005 41.2008L108.401 52.4008M102.801 58.0007L108.401 52.4008M102.801 58.0007L108.4 63.6007L114 58.0007L108.401 52.4008M52.4002 108.4L41.2002 97.2001L46.8002 91.6001L58.0002 102.8M52.4002 108.4L58.0002 102.8M41.2 30.0002L30 41.2002L24.3999 35.6002L35.6 24.4003L41.2 30.0002ZM18.8007 74.8L7.60065 63.6001L13.2007 58.0001L24.4007 69.2L18.8007 74.8ZM13.2 58.0007L7.60001 63.6007L2 58.0007L7.60001 52.4008L13.2 58.0007Z" stroke="url(#paint0_radial)" stroke-opacity="0.4" stroke-width="2" style="mix-blend-mode:overlay"/>
<defs>
<radialGradient id="paint0_radial" cx="0" cy="0" r="1" gradientUnits="userSpaceOnUse" gradientTransform="translate(2 2) rotate(45) scale(158.392 121.177)">
<stop stop-color="white"/>
<stop offset="1" stop-color="white" stop-opacity="0"/>
</radialGradient>
</defs>
</svg>
