<svg width="24" height="24" viewBox="0 0 24 24" fill="none" xmlns="http://www.w3.org/2000/svg">
<g clip-path="url(#clip0)">
<path d="M23.8727 17.7404C23.8437 17.681 23.8166 17.6316 23.7914 17.5921C23.375 16.8801 22.5793 16.0062 21.4047 14.9701L21.3799 14.9464L21.3675 14.9348L21.3549 14.9228H21.3423C20.8092 14.4404 20.4716 14.116 20.3303 13.9499C20.0716 13.6335 20.0137 13.3133 20.155 12.9888C20.2549 12.7437 20.6301 12.2259 21.2797 11.4349C21.6213 11.0157 21.892 10.6797 22.0918 10.4266C23.5331 8.60744 24.1579 7.44499 23.9662 6.93876L23.8918 6.82047C23.8418 6.74925 23.7127 6.68409 23.5046 6.62467C23.2961 6.56538 23.0296 6.55557 22.7047 6.59509L19.106 6.61869C19.0477 6.59908 18.9644 6.60091 18.856 6.62467C18.7477 6.64844 18.6935 6.66037 18.6935 6.66037L18.6308 6.69008L18.5811 6.72577C18.5395 6.74937 18.4936 6.79088 18.4436 6.85022C18.3938 6.90934 18.3522 6.97874 18.319 7.05781C17.9272 8.01479 17.4817 8.90453 16.9817 9.72701C16.6735 10.2174 16.3904 10.6425 16.1319 11.0024C15.8737 11.3621 15.6571 11.6272 15.4823 11.7971C15.3072 11.9671 15.1492 12.1034 15.0073 12.2063C14.8657 12.3093 14.7575 12.3528 14.6826 12.3369C14.6076 12.321 14.5369 12.3052 14.47 12.2894C14.3534 12.2182 14.2597 12.1213 14.189 11.9987C14.118 11.8761 14.0702 11.7219 14.0452 11.536C14.0203 11.35 14.0056 11.19 14.0014 11.0555C13.9975 10.9212 13.9993 10.7312 14.0078 10.486C14.0164 10.2408 14.0203 10.0748 14.0203 9.98779C14.0203 9.6872 14.0265 9.36098 14.0389 9.00904C14.0515 8.65709 14.0617 8.37824 14.0702 8.17281C14.0787 7.96717 14.0827 7.7496 14.0827 7.52024C14.0827 7.29087 14.068 7.11099 14.0389 6.98044C14.0102 6.85005 13.9661 6.72348 13.908 6.60078C13.8496 6.4782 13.7641 6.38338 13.6519 6.31607C13.5394 6.24884 13.3996 6.19549 13.2333 6.15584C12.7917 6.06098 12.2294 6.00967 11.5462 6.00169C9.99681 5.9859 9.00124 6.08089 8.55972 6.28652C8.38478 6.37341 8.22648 6.49212 8.08494 6.64229C7.93495 6.81635 7.91402 6.91134 8.0223 6.92696C8.52221 6.99806 8.87611 7.16813 9.0844 7.43701L9.15946 7.57949C9.21784 7.68229 9.27614 7.86429 9.33448 8.12523C9.39273 8.38618 9.43033 8.67484 9.44687 8.99104C9.48845 9.56849 9.48845 10.0628 9.44687 10.474C9.40516 10.8853 9.36577 11.2056 9.32818 11.435C9.29058 11.6643 9.23439 11.8502 9.15946 11.9925C9.0844 12.1348 9.03446 12.2219 9.00942 12.2534C8.98443 12.285 8.9636 12.3049 8.94706 12.3127C8.83878 12.3521 8.72616 12.3722 8.60961 12.3722C8.49289 12.3722 8.35134 12.3168 8.18477 12.206C8.01823 12.0952 7.8454 11.943 7.66626 11.7492C7.48712 11.5554 7.28509 11.2845 7.06009 10.9366C6.83526 10.5886 6.60198 10.1774 6.36039 9.70287L6.1605 9.35874C6.03555 9.13735 5.86486 8.81499 5.64825 8.39195C5.43152 7.96875 5.23995 7.55938 5.07342 7.16393C5.00685 6.99785 4.90684 6.87141 4.77357 6.7844L4.71103 6.7487C4.66945 6.71713 4.60271 6.68359 4.51115 6.64786C4.41945 6.61217 4.32378 6.58657 4.22373 6.57082L0.799884 6.59442C0.450012 6.59442 0.21262 6.66967 0.0876214 6.81997L0.0375958 6.89106C0.0126049 6.93066 0 6.9939 0 7.08095C0 7.16796 0.0249909 7.27475 0.0750165 7.40119C0.574835 8.51644 1.11838 9.59201 1.70564 10.6281C2.29291 11.6641 2.80323 12.4987 3.2363 13.131C3.66946 13.7638 4.11098 14.361 4.56086 14.9224C5.01075 15.484 5.30854 15.8438 5.45424 16.0019C5.60011 16.1603 5.71469 16.2788 5.79798 16.3578L6.11043 16.6425C6.31036 16.8324 6.60395 17.0597 6.99133 17.3246C7.3788 17.5897 7.80776 17.8506 8.27843 18.1079C8.74918 18.3647 9.29684 18.5743 9.9217 18.7364C10.5465 18.8986 11.1546 18.9638 11.7461 18.9323H13.1831C13.4746 18.9084 13.6954 18.8214 13.8455 18.6713L13.8952 18.6118C13.9286 18.5646 13.9599 18.4913 13.9888 18.3926C14.018 18.2937 14.0326 18.1848 14.0326 18.0664C14.024 17.7263 14.0513 17.4199 14.1136 17.1471C14.1759 16.8743 14.2469 16.6687 14.3263 16.5302C14.4056 16.3918 14.4952 16.2751 14.5948 16.1804C14.6947 16.0855 14.7659 16.0281 14.8076 16.0083C14.8491 15.9884 14.8822 15.9749 14.9072 15.9668C15.1072 15.9035 15.3425 15.9648 15.6135 16.1508C15.8842 16.3367 16.1382 16.5662 16.3758 16.8389C16.6132 17.1119 16.8985 17.4182 17.2317 17.7582C17.565 18.0984 17.8565 18.3512 18.1063 18.5175L18.3562 18.6599C18.523 18.7549 18.7396 18.8419 19.0062 18.921C19.2724 19 19.5056 19.0198 19.7058 18.9802L22.9046 18.9329C23.221 18.9329 23.4672 18.8831 23.6418 18.7845C23.8168 18.6856 23.9207 18.5767 23.9543 18.4582C23.9877 18.3396 23.9895 18.2051 23.9606 18.0547C23.931 17.9046 23.9018 17.7997 23.8727 17.7404Z" fill="black"/>
</g>
<defs>
<clipPath id="clip0">
<rect width="24" height="24" fill="white"/>
</clipPath>
</defs>
</svg>
