<svg width="24" height="24" viewBox="0 0 24 24" fill="none" xmlns="http://www.w3.org/2000/svg">
<path fill-rule="evenodd" clip-rule="evenodd" d="M22.1167 6.47168C22.3113 6.73145 22.4587 7.02734 22.5469 7.34668C23.0181 9.02344 23 12.5176 23 12.5176C23 12.5176 23 15.9941 22.5469 17.6709C22.2932 18.5879 21.5503 19.3115 20.6079 19.5586C18.8862 20 12 20 12 20C12 20 5.13184 20 3.39209 19.541C2.44971 19.2939 1.70679 18.5703 1.45312 17.6533C1 15.9941 1 12.5 1 12.5C1 12.5 1 11.5781 1.06177 10.4561C1.12012 9.39746 1.23315 8.16016 1.45312 7.34668C1.70679 6.42969 2.46777 5.68848 3.39209 5.44141C5.11377 5 12 5 12 5C12 5 18.8862 5 20.6079 5.45898C21.2224 5.62012 21.7522 5.9834 22.1167 6.47168ZM9.80737 9.28906L15.5339 12.501L9.80737 15.7129V9.28906Z" fill="#141B21"/>
</svg>
