<svg width="24" height="24" viewBox="0 0 24 24" fill="none" xmlns="http://www.w3.org/2000/svg">
<g opacity="0.3">
<path fill-rule="evenodd" clip-rule="evenodd" d="M20.6079 5.45882C21.5502 5.70588 22.2932 6.42941 22.5469 7.34706C23.0181 9.02353 23 12.5176 23 12.5176C23 12.5176 23 15.9941 22.5469 17.6706C22.2932 18.5882 21.5502 19.3118 20.6079 19.5588C18.8863 20 12 20 12 20C12 20 5.13179 20 3.39209 19.5412C2.44975 19.2941 1.70675 18.5706 1.45305 17.6529C1 15.9941 1 12.5 1 12.5C1 12.5 1 9.02353 1.45305 7.34706C1.70675 6.42941 2.46787 5.68824 3.39209 5.44118C5.11367 5 12 5 12 5C12 5 18.8863 5 20.6079 5.45882ZM9.80737 9.28925L15.5339 12.501L9.80737 15.7128V9.28925Z" fill="#141B21"/>
</g>
</svg>
