<?xml version="1.0" encoding="utf-8"?>
<!-- Generator: Adobe Illustrator 22.1.0, SVG Export Plug-In . SVG Version: 6.00 Build 0)  -->
<svg version="1.1" id="Слой_1" xmlns="http://www.w3.org/2000/svg" xmlns:xlink="http://www.w3.org/1999/xlink" x="0px" y="0px"
	 viewBox="0 0 108.1 144" style="enable-background:new 0 0 108.1 144;" xml:space="preserve">
<style type="text/css">
	.st0{fill:#1D4F41;}
	.st1{fill:url(#SVGID_1_);fill-opacity:0.4;}
	.st2{opacity:0.2;fill:url(#SVGID_2_);enable-background:new    ;}
	.st3{fill:#FAFAFC;}
</style>
<path class="st0" d="M103.1,0h-77L0,26.1V139c0,2.8,2.2,5,5,5h98.1c2.8,0,5-2.2,5-5V5C108.1,2.2,105.9,0,103.1,0z"/>
<radialGradient id="SVGID_1_" cx="2.1272" cy="561.2822" r="1" gradientTransform="matrix(108.0999 144.0001 105.7872 -79.4137 -59606.418 44267.1914)" gradientUnits="userSpaceOnUse">
	<stop  offset="0" style="stop-color:#FFFFFF"/>
	<stop  offset="1" style="stop-color:#FFFFFF;stop-opacity:0"/>
</radialGradient>
<path class="st1" d="M103.1,0h-77L0,26.1V139c0,2.8,2.2,5,5,5h98.1c2.8,0,5-2.2,5-5V5C108.1,2.2,105.9,0,103.1,0z"/>
<radialGradient id="SVGID_2_" cx="-4.5575" cy="560.7886" r="1" gradientTransform="matrix(-26.3052 -26.1696 -26.0579 26.1929 14519.3965 -14781.7598)" gradientUnits="userSpaceOnUse">
	<stop  offset="0" style="stop-color:#000000"/>
	<stop  offset="1" style="stop-color:#000000;stop-opacity:0"/>
</radialGradient>
<path class="st2" d="M26.1,0v21.1c0,2.8-2.2,5-5,5H0L26.1,0z"/>
<path class="st3" d="M32.7,66.9V80c0.1,0,0.2,0,0.3,0c0.1,0,0.3,0,0.5,0l1.1,0.1l0.9,0c1.6,0,2.8-0.2,3.7-0.7
	c1.1-0.6,1.9-1.4,2.4-2.5c0.5-1.1,0.8-2.4,0.8-3.8c0-1.2-0.1-2.2-0.4-3c-0.2-0.8-0.6-1.4-1.2-1.9c-0.5-0.5-1.3-0.9-2.1-1.1
	c-0.9-0.2-1.9-0.4-3.2-0.4c-0.2,0-0.4,0-0.8,0c-0.4,0-0.6,0-0.7,0L32.7,66.9z M30.7,81V66h5h1.5c1,0,1.9,0.1,2.7,0.3
	c0.8,0.2,1.5,0.5,2.1,1.1c0.8,0.6,1.4,1.4,1.8,2.4c0.4,1,0.6,2,0.6,3.1c0,1-0.1,1.9-0.3,2.7c-0.2,0.8-0.5,1.5-1,2.1
	c-0.4,0.6-0.9,1.2-1.5,1.7c-0.4,0.4-0.9,0.7-1.5,0.9c-0.2,0.1-0.5,0.2-0.8,0.3c-0.3,0.1-0.6,0.2-0.8,0.2c-0.3,0.1-0.6,0.1-0.8,0.1
	c-0.3,0-0.5,0.1-0.8,0.1l-2,0H30.7z M60.9,73.4c0-0.7,0-1.3-0.1-1.8c-0.1-0.5-0.2-1-0.4-1.5c-0.2-0.5-0.5-1-0.8-1.5
	c-0.4-0.5-0.8-0.8-1.3-1.1c-0.5-0.3-1-0.6-1.6-0.7c-0.6-0.2-1.2-0.3-1.7-0.3c-1,0-1.8,0.2-2.6,0.5c-0.8,0.4-1.4,0.9-2,1.5
	c-0.5,0.6-0.9,1.4-1.2,2.4c-0.3,0.9-0.4,1.9-0.4,3c0,1.1,0.1,2,0.4,2.9c0.3,0.8,0.7,1.6,1.3,2.1c0.6,0.6,1.2,1,2,1.3
	c0.7,0.3,1.5,0.4,2.3,0.4c1,0,1.9-0.2,2.7-0.7c0.8-0.5,1.4-1,1.9-1.8c0.5-0.7,0.9-1.5,1.1-2.4C60.8,74.9,60.9,74.1,60.9,73.4z
	 M54.7,81.3c-1.2,0-2.3-0.2-3.3-0.5c-1-0.4-1.9-0.9-2.6-1.6c-0.7-0.7-1.3-1.5-1.6-2.5c-0.2-0.5-0.3-1-0.4-1.5
	c-0.1-0.5-0.1-1.1-0.1-1.7c0-1.2,0.2-2.2,0.6-3.2c0.4-1,1-1.8,1.8-2.5c0.7-0.7,1.6-1.2,2.6-1.6c1-0.4,2.1-0.6,3.2-0.6
	c1.1,0,2.1,0.2,3.1,0.5c1,0.3,1.9,0.7,2.7,1.4c0.8,0.6,1.4,1.4,1.9,2.4c0.5,1,0.7,2.1,0.7,3.3c0,1.6-0.4,3-1.1,4.2
	c-0.7,1.2-1.7,2.2-3,2.9C57.7,81,56.3,81.3,54.7,81.3z M77.5,78.7l-0.1,1.4c-0.4,0.3-0.9,0.5-1.5,0.7c-0.5,0.2-1,0.3-1.6,0.4
	c-0.6,0.1-1.2,0.1-1.8,0.1c-1.2,0-2.3-0.2-3.2-0.5c-1-0.4-1.8-0.9-2.4-1.6s-1.2-1.5-1.5-2.5c-0.4-1-0.5-2.1-0.5-3.2
	c0-1.6,0.4-3,1.1-4.2c0.7-1.2,1.7-2.1,3-2.7c1.3-0.6,2.7-0.9,4.2-0.9c0.5,0,1.1,0,1.6,0.1c0.5,0.1,1.1,0.2,1.6,0.3
	c0.5,0.2,1,0.3,1.5,0.6c-0.2,0.5-0.3,1-0.5,1.7l-0.2,0c-0.2-0.2-0.4-0.5-0.8-0.7c-0.4-0.3-0.8-0.5-1.5-0.8c-0.6-0.3-1.2-0.4-1.9-0.4
	c-1.3,0-2.4,0.3-3.3,0.9c-0.9,0.6-1.6,1.5-2.1,2.6c-0.5,1.1-0.7,2.3-0.7,3.5c0,1.4,0.2,2.6,0.7,3.6c0.5,1,1.2,1.9,2.1,2.4
	c0.9,0.6,1.9,0.9,3.1,0.9c0.7,0,1.4-0.1,2.1-0.3c0.6-0.2,1.2-0.5,1.6-0.7C76.9,79.1,77.3,78.9,77.5,78.7z"/>
</svg>
