<?xml version="1.0" encoding="utf-8"?>
<!-- Generator: Adobe Illustrator 22.1.0, SVG Export Plug-In . SVG Version: 6.00 Build 0)  -->
<svg version="1.1" id="Слой_1" xmlns="http://www.w3.org/2000/svg" xmlns:xlink="http://www.w3.org/1999/xlink" x="0px" y="0px"
	 viewBox="0 0 108.1 144" style="enable-background:new 0 0 108.1 144;" xml:space="preserve">
<style type="text/css">
	.st0{fill:#1D4F41;}
	.st1{fill:url(#SVGID_1_);fill-opacity:0.4;}
	.st2{opacity:0.2;fill:url(#SVGID_2_);enable-background:new    ;}
	.st3{fill:#FAFAFC;}
</style>
<path class="st0" d="M103.1,0.2h-77L0,26.3v112.9c0,2.8,2.2,5,5,5h98.1c2.8,0,5-2.2,5-5V5.2C108.1,2.4,105.9,0.2,103.1,0.2z"/>
<radialGradient id="SVGID_1_" cx="2.128" cy="561.2813" r="1" gradientTransform="matrix(108.0993 144.0005 105.7867 -79.4127 -59606.125 44266.6445)" gradientUnits="userSpaceOnUse">
	<stop  offset="0" style="stop-color:#FFFFFF"/>
	<stop  offset="1" style="stop-color:#FFFFFF;stop-opacity:0"/>
</radialGradient>
<path class="st1" d="M103.1,0.2h-77L0,26.3v112.9c0,2.8,2.2,5,5,5h98.1c2.8,0,5-2.2,5-5V5.2C108.1,2.4,105.9,0.2,103.1,0.2z"/>
<radialGradient id="SVGID_2_" cx="-4.5613" cy="560.7924" r="1" gradientTransform="matrix(-26.3052 -26.1696 -26.0579 26.1929 14519.3965 -14781.7607)" gradientUnits="userSpaceOnUse">
	<stop  offset="0" style="stop-color:#000000"/>
	<stop  offset="1" style="stop-color:#000000;stop-opacity:0"/>
</radialGradient>
<path class="st2" d="M26.1,0.2v21.1c0,2.8-2.2,5-5,5H0L26.1,0.2z"/>
<path class="st3" d="M37.1,74.4v6.9l-0.4,0c-0.1,0-0.2,0-0.3,0l-0.3,0l-0.3,0l-0.3,0l-0.4,0v-15h3.9c1.4,0,2.5,0.1,3.4,0.3
	c0.8,0.2,1.4,0.6,1.8,1.1c0.4,0.5,0.5,1.2,0.5,2.1c0,0.7-0.1,1.2-0.3,1.7c-0.2,0.5-0.5,0.9-0.9,1.3c-0.4,0.4-0.9,0.7-1.5,0.9
	c-0.5,0.2-1.2,0.4-2.1,0.6c-0.2,0-0.3,0.1-0.6,0.1c-0.2,0-0.5,0-0.7,0h-0.2c-0.2,0-0.3,0-0.4,0H38c-0.1,0-0.1,0-0.2,0
	c-0.1,0-0.1,0-0.1,0l-0.3,0L37.1,74.4z M37.1,67.1v6.4l1,0c0.1,0,0.2,0,0.5,0c0.3,0,0.5,0,0.7,0c1.1-0.1,1.9-0.5,2.6-1.1
	c0.6-0.6,0.9-1.5,0.9-2.4c0-0.5-0.1-1-0.3-1.4c-0.2-0.4-0.4-0.7-0.8-1c-0.4-0.3-0.8-0.4-1.4-0.5c-0.1,0-0.3,0-0.6,0
	c-0.4,0-0.7,0-1.1,0c-0.4,0-0.6,0-0.9,0C37.4,67.1,37.2,67.1,37.1,67.1z M49.8,67.1v13.1c0.1,0,0.2,0,0.3,0c0.1,0,0.3,0,0.5,0
	l1.1,0.1l0.9,0c1.6,0,2.8-0.2,3.7-0.7c1.1-0.6,1.9-1.4,2.4-2.5c0.5-1.1,0.8-2.4,0.8-3.8c0-1.2-0.1-2.2-0.4-3
	c-0.2-0.8-0.6-1.4-1.2-1.9c-0.5-0.5-1.3-0.9-2.1-1.1c-0.9-0.2-1.9-0.4-3.2-0.4c-0.2,0-0.4,0-0.8,0c-0.4,0-0.6,0-0.7,0L49.8,67.1z
	 M47.9,81.2v-15h5h1.5c1,0,1.9,0.1,2.7,0.3c0.8,0.2,1.5,0.5,2.1,1.1c0.8,0.6,1.3,1.4,1.8,2.4c0.4,1,0.6,2,0.6,3.1
	c0,1-0.1,1.9-0.3,2.7c-0.2,0.8-0.5,1.5-1,2.1c-0.4,0.6-0.9,1.2-1.5,1.7c-0.4,0.4-0.9,0.7-1.5,0.9c-0.2,0.1-0.5,0.2-0.8,0.3
	c-0.3,0.1-0.6,0.2-0.8,0.2c-0.3,0.1-0.6,0.1-0.8,0.1c-0.3,0-0.5,0.1-0.8,0.1l-2,0H47.9z M64.7,81.3v-15h7.8l0,0.4l0,0.3l0,0.3l0,0.4
	c-0.4-0.1-0.7-0.1-0.9-0.2c-0.4-0.1-0.7-0.1-1.1-0.1l-2.2,0h-1.7v5.5h3.4l0.6,0l0.7-0.1l0.7,0l0,0.3l0,0.2l0,0.2l0,0.4l-0.7,0
	l-0.7,0l-0.6,0h-3.4v7.5l-0.4,0c-0.1,0-0.2,0-0.3,0l-0.3,0l-0.4,0L64.7,81.3z"/>
</svg>
