<?xml version="1.0" encoding="utf-8"?>
<!-- Generator: Adobe Illustrator 22.1.0, SVG Export Plug-In . SVG Version: 6.00 Build 0)  -->
<svg version="1.1" id="Слой_1" xmlns="http://www.w3.org/2000/svg" xmlns:xlink="http://www.w3.org/1999/xlink" x="0px" y="0px"
	 viewBox="0 0 108.1 144" style="enable-background:new 0 0 108.1 144;" xml:space="preserve">
<style type="text/css">
	.st0{fill:#1D4F41;}
	.st1{fill:url(#SVGID_1_);fill-opacity:0.4;}
	.st2{opacity:0.2;fill:url(#SVGID_2_);enable-background:new    ;}
	.st3{fill:#FAFAFC;}
</style>
<path class="st0" d="M103.1-0.1h-77L0,26v112.9c0,2.8,2.2,5,5,5h98.1c2.8,0,5-2.2,5-5V4.9C108.1,2.1,105.9-0.1,103.1-0.1z"/>
<radialGradient id="SVGID_1_" cx="2.1267" cy="561.2827" r="1" gradientTransform="matrix(108.0999 144.0001 105.7872 -79.4137 -59606.418 44267.1914)" gradientUnits="userSpaceOnUse">
	<stop  offset="0" style="stop-color:#FFFFFF"/>
	<stop  offset="1" style="stop-color:#FFFFFF;stop-opacity:0"/>
</radialGradient>
<path class="st1" d="M103.1-0.1h-77L0,26v112.9c0,2.8,2.2,5,5,5h98.1c2.8,0,5-2.2,5-5V4.9C108.1,2.1,105.9-0.1,103.1-0.1z"/>
<radialGradient id="SVGID_2_" cx="-4.5555" cy="560.7866" r="1" gradientTransform="matrix(-26.3052 -26.1696 -26.0579 26.1929 14519.3965 -14781.7598)" gradientUnits="userSpaceOnUse">
	<stop  offset="0" style="stop-color:#000000"/>
	<stop  offset="1" style="stop-color:#000000;stop-opacity:0"/>
</radialGradient>
<path class="st2" d="M26.1-0.1V21c0,2.8-2.2,5-5,5H0L26.1-0.1z"/>
<path class="st3" d="M39.3,81.1l2.4-3.7L40.9,76l-1-1.6l-0.7-1.1l-2.2-3.3l0.7,0l0.5,0l0.5,0l0.7,0l0.5,0.9l0.6,1l2.3,4l1.1-1.7
	l0.9-1.4l0.7-1.2c0.3-0.5,0.6-1,0.9-1.6l0.5,0l0.4,0l0.3,0l0.5,0l-0.4,0.4L44.5,75l-1.1,1.6l5.1,8.3l-0.5,0h-0.1c0,0-0.1,0-0.2,0
	l-0.4,0l-0.6,0l-0.7,0c-0.2-0.3-0.3-0.7-0.5-1c-0.3-0.5-0.5-1-0.8-1.4c-0.4-0.7-0.8-1.4-1.2-2.1c-0.2-0.4-0.4-0.7-0.5-0.8
	c-0.3-0.4-0.6-0.9-0.8-1.3c-0.5,0.8-1,1.5-1.4,2.1l-1.3,2.1L38.3,85l-0.4,0c-0.1,0-0.2,0-0.2,0h-0.2l-0.3,0l-0.2,0l-0.3,0l0.7-1
	l1-1.4L39.3,81.1z M53.2,69.9v14c0.1,0,0.7,0,1.8,0c1,0,1.8,0,2.2,0c0.3,0,0.6,0,1-0.1l1.1-0.1l0,0.4l0,0.3l0,0.3l0,0.4h-8v-15
	l0.6,0l0.4,0l0.4,0L53.2,69.9z M61.7,82H62c0.5,0.8,1,1.3,1.5,1.7c0.6,0.4,1.2,0.6,2,0.6c0.6,0,1.1-0.1,1.6-0.4
	c0.5-0.3,0.8-0.7,1.1-1.2c0.3-0.5,0.4-1,0.4-1.6c0-0.9-0.3-1.6-0.8-2c-0.6-0.4-1.4-0.9-2.5-1.3c-1.1-0.5-2-0.9-2.6-1.5
	c-0.6-0.5-0.9-1.4-0.9-2.5c0-1.4,0.5-2.4,1.4-3.1c0.9-0.7,2.1-1.1,3.5-1.1c0.6,0,1.2,0.1,1.7,0.3c0.6,0.2,1,0.4,1.4,0.8
	c-0.1,0.2-0.3,0.8-0.6,1.8h-0.2c-0.2-0.6-0.6-1.1-1-1.4c-0.5-0.3-1-0.5-1.7-0.5c-0.5,0-1,0.1-1.4,0.3c-0.4,0.2-0.8,0.5-1,0.9
	c-0.3,0.4-0.4,0.8-0.4,1.3c0,0.9,0.3,1.6,0.8,2c0.6,0.4,1.4,0.9,2.6,1.3c1.2,0.5,2,0.9,2.6,1.5c0.6,0.5,0.9,1.3,0.9,2.4
	c0,0.8-0.1,1.5-0.4,2.1c-0.3,0.6-0.7,1.1-1.2,1.6c-0.5,0.4-1.1,0.8-1.7,1c-0.3,0.1-0.7,0.2-1,0.2c-0.4,0.1-0.7,0.1-1.1,0.1
	c-0.3,0-0.6,0-0.9-0.1c-0.3-0.1-0.6-0.1-1-0.3c-0.7-0.2-1.3-0.5-1.6-0.9C61.5,83.5,61.6,82.8,61.7,82z"/>
</svg>
